%TF.GenerationSoftware,KiCad,Pcbnew,9.0.4*%
%TF.CreationDate,2026-01-15T21:37:35+03:30*%
%TF.ProjectId,Motor_Health_Monitoring_PCB,4d6f746f-725f-4486-9561-6c74685f4d6f,rev?*%
%TF.SameCoordinates,Original*%
%TF.FileFunction,Soldermask,Bot*%
%TF.FilePolarity,Negative*%
%FSLAX46Y46*%
G04 Gerber Fmt 4.6, Leading zero omitted, Abs format (unit mm)*
G04 Created by KiCad (PCBNEW 9.0.4) date 2026-01-15 21:37:35*
%MOMM*%
%LPD*%
G01*
G04 APERTURE LIST*
G04 Aperture macros list*
%AMRoundRect*
0 Rectangle with rounded corners*
0 $1 Rounding radius*
0 $2 $3 $4 $5 $6 $7 $8 $9 X,Y pos of 4 corners*
0 Add a 4 corners polygon primitive as box body*
4,1,4,$2,$3,$4,$5,$6,$7,$8,$9,$2,$3,0*
0 Add four circle primitives for the rounded corners*
1,1,$1+$1,$2,$3*
1,1,$1+$1,$4,$5*
1,1,$1+$1,$6,$7*
1,1,$1+$1,$8,$9*
0 Add four rect primitives between the rounded corners*
20,1,$1+$1,$2,$3,$4,$5,0*
20,1,$1+$1,$4,$5,$6,$7,0*
20,1,$1+$1,$6,$7,$8,$9,0*
20,1,$1+$1,$8,$9,$2,$3,0*%
G04 Aperture macros list end*
%ADD10C,0.750000*%
%ADD11C,0.010000*%
%ADD12R,2.250000X2.250000*%
%ADD13C,2.250000*%
%ADD14C,2.100000*%
%ADD15C,1.600000*%
%ADD16RoundRect,0.102000X-0.754000X-0.754000X0.754000X-0.754000X0.754000X0.754000X-0.754000X0.754000X0*%
%ADD17C,1.712000*%
%ADD18C,3.204000*%
%ADD19C,1.000000*%
%ADD20C,2.500000*%
%ADD21RoundRect,0.102000X-0.800000X-0.800000X0.800000X-0.800000X0.800000X0.800000X-0.800000X0.800000X0*%
%ADD22C,1.804000*%
%ADD23C,1.412000*%
%ADD24R,1.905000X2.000000*%
%ADD25O,1.905000X2.000000*%
%ADD26R,3.500000X3.500000*%
%ADD27RoundRect,0.750000X-0.750000X-1.000000X0.750000X-1.000000X0.750000X1.000000X-0.750000X1.000000X0*%
%ADD28RoundRect,0.875000X-0.875000X-0.875000X0.875000X-0.875000X0.875000X0.875000X-0.875000X0.875000X0*%
%ADD29RoundRect,0.102000X0.625000X-0.625000X0.625000X0.625000X-0.625000X0.625000X-0.625000X-0.625000X0*%
%ADD30C,1.454000*%
%ADD31C,1.440000*%
%ADD32R,1.700000X1.700000*%
%ADD33C,1.700000*%
%ADD34R,2.000000X2.000000*%
%ADD35C,2.000000*%
%ADD36C,0.854000*%
%ADD37O,1.254000X2.304000*%
%ADD38RoundRect,0.102000X-0.570000X-0.570000X0.570000X-0.570000X0.570000X0.570000X-0.570000X0.570000X0*%
%ADD39C,1.344000*%
%ADD40R,1.500000X1.500000*%
%ADD41C,1.500000*%
%ADD42C,0.500000*%
%ADD43R,6.000000X9.000000*%
%ADD44RoundRect,0.250000X1.050000X1.050000X-1.050000X1.050000X-1.050000X-1.050000X1.050000X-1.050000X0*%
%ADD45C,2.600000*%
%ADD46RoundRect,0.250000X0.550000X-0.550000X0.550000X0.550000X-0.550000X0.550000X-0.550000X-0.550000X0*%
%ADD47R,1.900000X1.900000*%
%ADD48C,1.900000*%
G04 APERTURE END LIST*
D10*
%TO.C,U9*%
X147735000Y-110650000D02*
G75*
G02*
X146985000Y-110650000I-375000J0D01*
G01*
X146985000Y-110650000D02*
G75*
G02*
X147735000Y-110650000I375000J0D01*
G01*
X150335000Y-110650000D02*
G75*
G02*
X149585000Y-110650000I-375000J0D01*
G01*
X149585000Y-110650000D02*
G75*
G02*
X150335000Y-110650000I375000J0D01*
G01*
D11*
X145510000Y-111400000D02*
X144010000Y-111400000D01*
X144010000Y-109900000D01*
X145510000Y-109900000D01*
X145510000Y-111400000D01*
G36*
X145510000Y-111400000D02*
G01*
X144010000Y-111400000D01*
X144010000Y-109900000D01*
X145510000Y-109900000D01*
X145510000Y-111400000D01*
G37*
%TD*%
D12*
%TO.C,SW3*%
X143127500Y-67629000D03*
D13*
X136627500Y-67629000D03*
%TD*%
D14*
%TO.C,REF\u002A\u002A*%
X95360000Y-128120000D03*
%TD*%
D15*
%TO.C,C8*%
X91733500Y-75063500D03*
X89233500Y-75063500D03*
%TD*%
D12*
%TO.C,SW15*%
X111071500Y-67629000D03*
D13*
X104571500Y-67629000D03*
%TD*%
D12*
%TO.C,SW9*%
X121866500Y-80583000D03*
D13*
X115366500Y-80583000D03*
%TD*%
D16*
%TO.C,U7*%
X123113500Y-106675000D03*
D17*
X125653500Y-106675000D03*
X128193500Y-106675000D03*
X130733500Y-106675000D03*
D18*
X115923500Y-107175000D03*
X137923500Y-107175000D03*
X137923500Y-129175000D03*
X115923500Y-129175000D03*
%TD*%
D15*
%TO.C,C10*%
X85851500Y-75063500D03*
X83351500Y-75063500D03*
%TD*%
D19*
%TO.C,U10*%
X156690500Y-116815000D03*
D20*
X161340500Y-112465000D03*
X161340500Y-116265000D03*
D21*
X158590500Y-113095000D03*
D22*
X158590500Y-115635000D03*
X164090500Y-115635000D03*
X164090500Y-113095000D03*
%TD*%
D23*
%TO.C,X1*%
X105956500Y-94655000D03*
X105956500Y-106655000D03*
%TD*%
D24*
%TO.C,U4*%
X91693500Y-69475500D03*
D25*
X89153500Y-69475500D03*
X86613500Y-69475500D03*
%TD*%
D14*
%TO.C,REF\u002A\u002A*%
X75184000Y-62484000D03*
%TD*%
D12*
%TO.C,SW12*%
X121941500Y-61279000D03*
D13*
X115441500Y-61279000D03*
%TD*%
D26*
%TO.C,J1*%
X85140500Y-83377000D03*
D27*
X79140500Y-83377000D03*
D28*
X82140500Y-88077000D03*
%TD*%
D12*
%TO.C,SW6*%
X132459500Y-73979000D03*
D13*
X125959500Y-73979000D03*
%TD*%
D29*
%TO.C,U5*%
X180771500Y-71435500D03*
D30*
X183311500Y-71435500D03*
X185851500Y-71435500D03*
X188391500Y-71435500D03*
X190931500Y-71435500D03*
X193471500Y-71435500D03*
X196011500Y-71435500D03*
X198551500Y-71435500D03*
X198551500Y-62635500D03*
X196011500Y-62635500D03*
X193471500Y-62635500D03*
X190931500Y-62635500D03*
X188391500Y-62635500D03*
X185851500Y-62635500D03*
X183311500Y-62635500D03*
X180771500Y-62635500D03*
%TD*%
D31*
%TO.C,RV1*%
X111036500Y-89135000D03*
X108496500Y-89135000D03*
X105956500Y-89135000D03*
%TD*%
D12*
%TO.C,SW7*%
X132407500Y-67629000D03*
D13*
X125907500Y-67629000D03*
%TD*%
D12*
%TO.C,SW10*%
X121993500Y-73979000D03*
D13*
X115493500Y-73979000D03*
%TD*%
D12*
%TO.C,SW8*%
X132355500Y-61279000D03*
D13*
X125855500Y-61279000D03*
%TD*%
D32*
%TO.C,J4*%
X72948500Y-97855000D03*
D33*
X72948500Y-95315000D03*
X72948500Y-92775000D03*
%TD*%
D34*
%TO.C,U2*%
X93014500Y-109793000D03*
D35*
X93014500Y-107253000D03*
X93014500Y-104713000D03*
%TD*%
D14*
%TO.C,REF\u002A\u002A*%
X202184000Y-127700000D03*
%TD*%
D12*
%TO.C,SW16*%
X111146500Y-61279000D03*
D13*
X104646500Y-61279000D03*
%TD*%
D36*
%TO.C,J2*%
X80470750Y-120734500D03*
X80070750Y-121444500D03*
X79270750Y-121444500D03*
X78870750Y-120734500D03*
X78470750Y-121444500D03*
X78070750Y-120734500D03*
X77270750Y-120734500D03*
X76870750Y-121444500D03*
X76470750Y-120734500D03*
X76070750Y-121444500D03*
X75270750Y-121444500D03*
X74870750Y-120734500D03*
X79670750Y-120734500D03*
X75670750Y-120734500D03*
D37*
X73400750Y-121884500D03*
X81940750Y-121884500D03*
X73400750Y-126614500D03*
X81940750Y-126614500D03*
%TD*%
D12*
%TO.C,SW13*%
X111198500Y-80521000D03*
D13*
X104698500Y-80521000D03*
%TD*%
D12*
%TO.C,SW2*%
X143202500Y-74106000D03*
D13*
X136702500Y-74106000D03*
%TD*%
D12*
%TO.C,SW5*%
X132534500Y-80456000D03*
D13*
X126034500Y-80456000D03*
%TD*%
D38*
%TO.C,U13*%
X115968500Y-89473000D03*
D39*
X115968500Y-92013000D03*
X115968500Y-94553000D03*
X115968500Y-97093000D03*
X123908500Y-97093000D03*
X123908500Y-94553000D03*
X123908500Y-92013000D03*
X123908500Y-89473000D03*
%TD*%
D40*
%TO.C,U8*%
X171486500Y-118297000D03*
D41*
X171486500Y-120207000D03*
X171486500Y-122117000D03*
D42*
X192886500Y-121457000D03*
X194886500Y-122607000D03*
X190886500Y-122607000D03*
X194886500Y-123907000D03*
X190886500Y-123907000D03*
X194886500Y-125207000D03*
D43*
X192886500Y-125207000D03*
D42*
X190886500Y-125207000D03*
X194886500Y-126507000D03*
X190886500Y-126507000D03*
X194886500Y-127807000D03*
X190886500Y-127807000D03*
X192886500Y-128957000D03*
X192886500Y-111457000D03*
X194886500Y-112607000D03*
X190886500Y-112607000D03*
X194886500Y-113907000D03*
X190886500Y-113907000D03*
X194886500Y-115207000D03*
D43*
X192886500Y-115207000D03*
D42*
X190886500Y-115207000D03*
X194886500Y-116507000D03*
X190886500Y-116507000D03*
X194886500Y-117807000D03*
X190886500Y-117807000D03*
X192886500Y-118957000D03*
%TD*%
D12*
%TO.C,SW4*%
X142948500Y-61152000D03*
D13*
X136448500Y-61152000D03*
%TD*%
D12*
%TO.C,SW14*%
X111198500Y-74106000D03*
D13*
X104698500Y-74106000D03*
%TD*%
D44*
%TO.C,J3*%
X172407500Y-64662500D03*
D45*
X167407500Y-64662500D03*
X162407500Y-64662500D03*
X157407500Y-64662500D03*
%TD*%
D12*
%TO.C,SW1*%
X143254500Y-80583000D03*
D13*
X136754500Y-80583000D03*
%TD*%
D12*
%TO.C,SW11*%
X121993500Y-67502000D03*
D13*
X115493500Y-67502000D03*
%TD*%
D46*
%TO.C,U6*%
X152697500Y-97040000D03*
D15*
X155237500Y-97040000D03*
X157777500Y-97040000D03*
X160317500Y-97040000D03*
X162857500Y-97040000D03*
X165397500Y-97040000D03*
X167937500Y-97040000D03*
X170477500Y-97040000D03*
X173017500Y-97040000D03*
X175557500Y-97040000D03*
X178097500Y-97040000D03*
X180637500Y-97040000D03*
X183177500Y-97040000D03*
X185717500Y-97040000D03*
X188257500Y-97040000D03*
X190797500Y-97040000D03*
X193337500Y-97040000D03*
X195877500Y-97040000D03*
X198417500Y-97040000D03*
X200957500Y-97040000D03*
X200957500Y-81800000D03*
X198417500Y-81800000D03*
X195877500Y-81800000D03*
X193337500Y-81800000D03*
X190797500Y-81800000D03*
X188257500Y-81800000D03*
X185717500Y-81800000D03*
X183177500Y-81800000D03*
X180637500Y-81800000D03*
X178097500Y-81800000D03*
X175557500Y-81800000D03*
X173017500Y-81800000D03*
X170477500Y-81800000D03*
X167937500Y-81800000D03*
X165397500Y-81800000D03*
X162857500Y-81800000D03*
X160317500Y-81800000D03*
X157777500Y-81800000D03*
X155237500Y-81800000D03*
X152697500Y-81800000D03*
%TD*%
D47*
%TO.C,S1*%
X91967500Y-80938500D03*
D48*
X91967500Y-83438500D03*
X91967500Y-85938500D03*
%TD*%
D14*
%TO.C,REF\u002A\u002A*%
X150557500Y-62160000D03*
%TD*%
M02*
