%TF.GenerationSoftware,KiCad,Pcbnew,9.0.4*%
%TF.CreationDate,2026-01-15T21:37:35+03:30*%
%TF.ProjectId,Motor_Health_Monitoring_PCB,4d6f746f-725f-4486-9561-6c74685f4d6f,rev?*%
%TF.SameCoordinates,Original*%
%TF.FileFunction,Soldermask,Top*%
%TF.FilePolarity,Negative*%
%FSLAX46Y46*%
G04 Gerber Fmt 4.6, Leading zero omitted, Abs format (unit mm)*
G04 Created by KiCad (PCBNEW 9.0.4) date 2026-01-15 21:37:35*
%MOMM*%
%LPD*%
G01*
G04 APERTURE LIST*
G04 Aperture macros list*
%AMRoundRect*
0 Rectangle with rounded corners*
0 $1 Rounding radius*
0 $2 $3 $4 $5 $6 $7 $8 $9 X,Y pos of 4 corners*
0 Add a 4 corners polygon primitive as box body*
4,1,4,$2,$3,$4,$5,$6,$7,$8,$9,$2,$3,0*
0 Add four circle primitives for the rounded corners*
1,1,$1+$1,$2,$3*
1,1,$1+$1,$4,$5*
1,1,$1+$1,$6,$7*
1,1,$1+$1,$8,$9*
0 Add four rect primitives between the rounded corners*
20,1,$1+$1,$2,$3,$4,$5,0*
20,1,$1+$1,$4,$5,$6,$7,0*
20,1,$1+$1,$6,$7,$8,$9,0*
20,1,$1+$1,$8,$9,$2,$3,0*%
G04 Aperture macros list end*
%ADD10C,0.750000*%
%ADD11C,0.010000*%
%ADD12R,2.250000X2.250000*%
%ADD13C,2.250000*%
%ADD14R,1.230000X1.800000*%
%ADD15C,2.100000*%
%ADD16C,1.600000*%
%ADD17RoundRect,0.250000X-0.262500X-0.450000X0.262500X-0.450000X0.262500X0.450000X-0.262500X0.450000X0*%
%ADD18C,2.000000*%
%ADD19RoundRect,0.250000X-0.450000X0.262500X-0.450000X-0.262500X0.450000X-0.262500X0.450000X0.262500X0*%
%ADD20RoundRect,0.102000X-0.754000X-0.754000X0.754000X-0.754000X0.754000X0.754000X-0.754000X0.754000X0*%
%ADD21C,1.712000*%
%ADD22C,3.204000*%
%ADD23RoundRect,0.250000X-0.250000X-0.475000X0.250000X-0.475000X0.250000X0.475000X-0.250000X0.475000X0*%
%ADD24RoundRect,0.250000X0.262500X0.450000X-0.262500X0.450000X-0.262500X-0.450000X0.262500X-0.450000X0*%
%ADD25RoundRect,0.250001X-1.499999X-0.949999X1.499999X-0.949999X1.499999X0.949999X-1.499999X0.949999X0*%
%ADD26C,1.000000*%
%ADD27C,2.500000*%
%ADD28RoundRect,0.102000X-0.800000X-0.800000X0.800000X-0.800000X0.800000X0.800000X-0.800000X0.800000X0*%
%ADD29C,1.804000*%
%ADD30RoundRect,0.250000X-0.475000X0.250000X-0.475000X-0.250000X0.475000X-0.250000X0.475000X0.250000X0*%
%ADD31C,1.412000*%
%ADD32RoundRect,0.250000X0.475000X-0.250000X0.475000X0.250000X-0.475000X0.250000X-0.475000X-0.250000X0*%
%ADD33R,1.905000X2.000000*%
%ADD34O,1.905000X2.000000*%
%ADD35R,3.500000X3.500000*%
%ADD36RoundRect,0.750000X-0.750000X-1.000000X0.750000X-1.000000X0.750000X1.000000X-0.750000X1.000000X0*%
%ADD37RoundRect,0.875000X-0.875000X-0.875000X0.875000X-0.875000X0.875000X0.875000X-0.875000X0.875000X0*%
%ADD38RoundRect,0.250000X0.450000X-0.262500X0.450000X0.262500X-0.450000X0.262500X-0.450000X-0.262500X0*%
%ADD39RoundRect,0.102000X0.625000X-0.625000X0.625000X0.625000X-0.625000X0.625000X-0.625000X-0.625000X0*%
%ADD40C,1.454000*%
%ADD41C,1.440000*%
%ADD42RoundRect,0.250000X0.450000X-0.325000X0.450000X0.325000X-0.450000X0.325000X-0.450000X-0.325000X0*%
%ADD43R,2.810000X0.910000*%
%ADD44R,1.700000X1.700000*%
%ADD45C,1.700000*%
%ADD46R,2.000000X2.000000*%
%ADD47RoundRect,0.116000X0.116000X-0.471000X0.116000X0.471000X-0.116000X0.471000X-0.116000X-0.471000X0*%
%ADD48RoundRect,0.116000X0.471000X-0.116000X0.471000X0.116000X-0.471000X0.116000X-0.471000X-0.116000X0*%
%ADD49RoundRect,0.102000X1.575000X-1.575000X1.575000X1.575000X-1.575000X1.575000X-1.575000X-1.575000X0*%
%ADD50RoundRect,0.250000X0.250000X0.475000X-0.250000X0.475000X-0.250000X-0.475000X0.250000X-0.475000X0*%
%ADD51RoundRect,0.102000X-0.150000X-0.600000X0.150000X-0.600000X0.150000X0.600000X-0.150000X0.600000X0*%
%ADD52C,0.854000*%
%ADD53RoundRect,0.102000X-0.100000X-0.500000X0.100000X-0.500000X0.100000X0.500000X-0.100000X0.500000X0*%
%ADD54O,1.254000X2.304000*%
%ADD55RoundRect,0.150000X-0.150000X0.512500X-0.150000X-0.512500X0.150000X-0.512500X0.150000X0.512500X0*%
%ADD56RoundRect,0.250000X0.325000X0.450000X-0.325000X0.450000X-0.325000X-0.450000X0.325000X-0.450000X0*%
%ADD57RoundRect,0.102000X-0.570000X-0.570000X0.570000X-0.570000X0.570000X0.570000X-0.570000X0.570000X0*%
%ADD58C,1.344000*%
%ADD59R,1.500000X1.500000*%
%ADD60C,1.500000*%
%ADD61C,0.500000*%
%ADD62R,6.000000X9.000000*%
%ADD63RoundRect,0.250000X1.050000X1.050000X-1.050000X1.050000X-1.050000X-1.050000X1.050000X-1.050000X0*%
%ADD64C,2.600000*%
%ADD65RoundRect,0.250000X0.550000X-0.550000X0.550000X0.550000X-0.550000X0.550000X-0.550000X-0.550000X0*%
%ADD66RoundRect,0.125000X-0.687500X-0.125000X0.687500X-0.125000X0.687500X0.125000X-0.687500X0.125000X0*%
%ADD67R,1.900000X1.900000*%
%ADD68C,1.900000*%
G04 APERTURE END LIST*
D10*
%TO.C,U9*%
X147735000Y-110650000D02*
G75*
G02*
X146985000Y-110650000I-375000J0D01*
G01*
X146985000Y-110650000D02*
G75*
G02*
X147735000Y-110650000I375000J0D01*
G01*
X150335000Y-110650000D02*
G75*
G02*
X149585000Y-110650000I-375000J0D01*
G01*
X149585000Y-110650000D02*
G75*
G02*
X150335000Y-110650000I375000J0D01*
G01*
D11*
X145510000Y-111400000D02*
X144010000Y-111400000D01*
X144010000Y-109900000D01*
X145510000Y-109900000D01*
X145510000Y-111400000D01*
G36*
X145510000Y-111400000D02*
G01*
X144010000Y-111400000D01*
X144010000Y-109900000D01*
X145510000Y-109900000D01*
X145510000Y-111400000D01*
G37*
%TD*%
D12*
%TO.C,SW3*%
X143127500Y-67629000D03*
D13*
X136627500Y-67629000D03*
%TD*%
D14*
%TO.C,C3*%
X97713500Y-109960000D03*
X97713500Y-107340000D03*
%TD*%
D15*
%TO.C,REF\u002A\u002A*%
X95360000Y-128120000D03*
%TD*%
D16*
%TO.C,C8*%
X91733500Y-75063500D03*
X89233500Y-75063500D03*
%TD*%
D17*
%TO.C,R15*%
X183288000Y-73471000D03*
X185113000Y-73471000D03*
%TD*%
D12*
%TO.C,SW15*%
X111071500Y-67629000D03*
D13*
X104571500Y-67629000D03*
%TD*%
D18*
%TO.C,TP1*%
X86237500Y-65000000D03*
%TD*%
D12*
%TO.C,SW9*%
X121866500Y-80583000D03*
D13*
X115366500Y-80583000D03*
%TD*%
D17*
%TO.C,R23*%
X99110000Y-80583000D03*
X100935000Y-80583000D03*
%TD*%
%TO.C,R29*%
X99110000Y-74106000D03*
X100935000Y-74106000D03*
%TD*%
D19*
%TO.C,R12*%
X180644500Y-73320500D03*
X180644500Y-75145500D03*
%TD*%
D14*
%TO.C,C6*%
X101777500Y-103911000D03*
X101777500Y-106531000D03*
%TD*%
D20*
%TO.C,U7*%
X123113500Y-106675000D03*
D21*
X125653500Y-106675000D03*
X128193500Y-106675000D03*
X130733500Y-106675000D03*
D22*
X115923500Y-107175000D03*
X137923500Y-107175000D03*
X137923500Y-129175000D03*
X115923500Y-129175000D03*
%TD*%
D23*
%TO.C,C12*%
X193029500Y-104671500D03*
X194929500Y-104671500D03*
%TD*%
D17*
%TO.C,R2*%
X82450000Y-107126000D03*
X84275000Y-107126000D03*
%TD*%
D24*
%TO.C,R16*%
X195908000Y-73471000D03*
X194083000Y-73471000D03*
%TD*%
D25*
%TO.C,Y1*%
X193284500Y-101115500D03*
X198484500Y-101115500D03*
%TD*%
D16*
%TO.C,C10*%
X85851500Y-75063500D03*
X83351500Y-75063500D03*
%TD*%
D26*
%TO.C,U10*%
X156690500Y-116815000D03*
D27*
X161340500Y-112465000D03*
X161340500Y-116265000D03*
D28*
X158590500Y-113095000D03*
D29*
X158590500Y-115635000D03*
X164090500Y-115635000D03*
X164090500Y-113095000D03*
%TD*%
D18*
%TO.C,TP4*%
X190367500Y-77480000D03*
%TD*%
D17*
%TO.C,R18*%
X183288000Y-60517000D03*
X185113000Y-60517000D03*
%TD*%
D30*
%TO.C,C25*%
X147397500Y-113510000D03*
X147397500Y-115410000D03*
%TD*%
D31*
%TO.C,X1*%
X105956500Y-94655000D03*
X105956500Y-106655000D03*
%TD*%
D32*
%TO.C,C13*%
X173024500Y-101853000D03*
X173024500Y-99953000D03*
%TD*%
D33*
%TO.C,U4*%
X91693500Y-69475500D03*
D34*
X89153500Y-69475500D03*
X86613500Y-69475500D03*
%TD*%
D17*
%TO.C,R31*%
X98931000Y-61406000D03*
X100756000Y-61406000D03*
%TD*%
D15*
%TO.C,REF\u002A\u002A*%
X75184000Y-62484000D03*
%TD*%
D12*
%TO.C,SW12*%
X121941500Y-61279000D03*
D13*
X115441500Y-61279000D03*
%TD*%
D24*
%TO.C,R25*%
X158570000Y-109158000D03*
X156745000Y-109158000D03*
%TD*%
D14*
%TO.C,C4*%
X73580500Y-110598000D03*
X73580500Y-113218000D03*
%TD*%
D19*
%TO.C,R27*%
X127927500Y-95805500D03*
X127927500Y-97630500D03*
%TD*%
D35*
%TO.C,J1*%
X85140500Y-83377000D03*
D36*
X79140500Y-83377000D03*
D37*
X82140500Y-88077000D03*
%TD*%
D23*
%TO.C,C2*%
X82412500Y-111190000D03*
X84312500Y-111190000D03*
%TD*%
D12*
%TO.C,SW6*%
X132459500Y-73979000D03*
D13*
X125959500Y-73979000D03*
%TD*%
D18*
%TO.C,TP5*%
X203807500Y-76691500D03*
%TD*%
D24*
%TO.C,R20*%
X132408000Y-103484500D03*
X130583000Y-103484500D03*
%TD*%
D38*
%TO.C,R32*%
X155947500Y-124195500D03*
X155947500Y-122370500D03*
%TD*%
D24*
%TO.C,R26*%
X132015000Y-97607000D03*
X130190000Y-97607000D03*
%TD*%
D38*
%TO.C,R4*%
X148647500Y-124095500D03*
X148647500Y-122270500D03*
%TD*%
D39*
%TO.C,U5*%
X180771500Y-71435500D03*
D40*
X183311500Y-71435500D03*
X185851500Y-71435500D03*
X188391500Y-71435500D03*
X190931500Y-71435500D03*
X193471500Y-71435500D03*
X196011500Y-71435500D03*
X198551500Y-71435500D03*
X198551500Y-62635500D03*
X196011500Y-62635500D03*
X193471500Y-62635500D03*
X190931500Y-62635500D03*
X188391500Y-62635500D03*
X185851500Y-62635500D03*
X183311500Y-62635500D03*
X180771500Y-62635500D03*
%TD*%
D41*
%TO.C,RV1*%
X111036500Y-89135000D03*
X108496500Y-89135000D03*
X105956500Y-89135000D03*
%TD*%
D17*
%TO.C,R6*%
X79399000Y-97728000D03*
X81224000Y-97728000D03*
%TD*%
D24*
%TO.C,R7*%
X75385000Y-116651000D03*
X73560000Y-116651000D03*
%TD*%
D23*
%TO.C,C16*%
X188965500Y-73471000D03*
X190865500Y-73471000D03*
%TD*%
D42*
%TO.C,LED5*%
X163547500Y-128245000D03*
X163547500Y-126195000D03*
%TD*%
%TO.C,D1*%
X127927500Y-93806000D03*
X127927500Y-91756000D03*
%TD*%
D43*
%TO.C,F1*%
X81076500Y-117382000D03*
X81076500Y-114142000D03*
%TD*%
D12*
%TO.C,SW7*%
X132407500Y-67629000D03*
D13*
X125907500Y-67629000D03*
%TD*%
D42*
%TO.C,LED4*%
X155947500Y-128245000D03*
X155947500Y-126195000D03*
%TD*%
D19*
%TO.C,R24*%
X111163500Y-92757500D03*
X111163500Y-94582500D03*
%TD*%
D12*
%TO.C,SW10*%
X121993500Y-73979000D03*
D13*
X115493500Y-73979000D03*
%TD*%
D12*
%TO.C,SW8*%
X132355500Y-61279000D03*
D13*
X125855500Y-61279000D03*
%TD*%
D44*
%TO.C,J4*%
X72948500Y-97855000D03*
D45*
X72948500Y-95315000D03*
X72948500Y-92775000D03*
%TD*%
D23*
%TO.C,C1*%
X100700500Y-109920000D03*
X102600500Y-109920000D03*
%TD*%
D18*
%TO.C,TP2*%
X90127500Y-65030000D03*
%TD*%
D46*
%TO.C,U2*%
X93014500Y-109793000D03*
D18*
X93014500Y-107253000D03*
X93014500Y-104713000D03*
%TD*%
D47*
%TO.C,U3*%
X75897500Y-106420000D03*
X76397500Y-106420000D03*
X76897500Y-106420000D03*
X77397500Y-106420000D03*
X77897500Y-106420000D03*
X78397500Y-106420000D03*
X78897500Y-106420000D03*
D48*
X79767500Y-105550000D03*
X79767500Y-105050000D03*
X79767500Y-104550000D03*
X79767500Y-104050000D03*
X79767500Y-103550000D03*
X79767500Y-103050000D03*
X79767500Y-102550000D03*
D47*
X78897500Y-101680000D03*
X78397500Y-101680000D03*
X77897500Y-101680000D03*
X77397500Y-101680000D03*
X76897500Y-101680000D03*
X76397500Y-101680000D03*
X75897500Y-101680000D03*
D48*
X75027500Y-102550000D03*
X75027500Y-103050000D03*
X75027500Y-103550000D03*
X75027500Y-104050000D03*
X75027500Y-104550000D03*
X75027500Y-105050000D03*
X75027500Y-105550000D03*
D49*
X77397500Y-104050000D03*
%TD*%
D15*
%TO.C,REF\u002A\u002A*%
X202184000Y-127700000D03*
%TD*%
D38*
%TO.C,R14*%
X201218500Y-64350500D03*
X201218500Y-62525500D03*
%TD*%
D12*
%TO.C,SW16*%
X111146500Y-61279000D03*
D13*
X104646500Y-61279000D03*
%TD*%
D50*
%TO.C,C7*%
X98663500Y-103951000D03*
X96763500Y-103951000D03*
%TD*%
D24*
%TO.C,R17*%
X195908000Y-60390000D03*
X194083000Y-60390000D03*
%TD*%
D51*
%TO.C,J2*%
X74920750Y-119484500D03*
X75420750Y-119484500D03*
X75920750Y-119484500D03*
X76420750Y-119484500D03*
X76920750Y-119484500D03*
X77420750Y-119484500D03*
X77920750Y-119484500D03*
X78420750Y-119484500D03*
X78920750Y-119484500D03*
X79420750Y-119484500D03*
X79920750Y-119484500D03*
X80420750Y-119484500D03*
D52*
X80470750Y-120734500D03*
X80070750Y-121444500D03*
X79270750Y-121444500D03*
X78870750Y-120734500D03*
X78470750Y-121444500D03*
X78070750Y-120734500D03*
X77270750Y-120734500D03*
X76870750Y-121444500D03*
X76470750Y-120734500D03*
X76070750Y-121444500D03*
X75270750Y-121444500D03*
X74870750Y-120734500D03*
X79670750Y-120734500D03*
X75670750Y-120734500D03*
D53*
X77670750Y-124064500D03*
X77670750Y-127164500D03*
D54*
X73400750Y-121884500D03*
X81940750Y-121884500D03*
X73400750Y-126614500D03*
X81940750Y-126614500D03*
%TD*%
D50*
%TO.C,C11*%
X198485500Y-104671500D03*
X196585500Y-104671500D03*
%TD*%
D55*
%TO.C,U1*%
X78597500Y-110179500D03*
X77647500Y-110179500D03*
X76697500Y-110179500D03*
X76697500Y-112454500D03*
X77647500Y-112454500D03*
X78597500Y-112454500D03*
%TD*%
D30*
%TO.C,C19*%
X111163500Y-104658000D03*
X111163500Y-106558000D03*
%TD*%
D24*
%TO.C,R28*%
X132396000Y-89352000D03*
X130571000Y-89352000D03*
%TD*%
D12*
%TO.C,SW13*%
X111198500Y-80521000D03*
D13*
X104698500Y-80521000D03*
%TD*%
D30*
%TO.C,C24*%
X144857500Y-113510000D03*
X144857500Y-115410000D03*
%TD*%
D12*
%TO.C,SW2*%
X143202500Y-74106000D03*
D13*
X136702500Y-74106000D03*
%TD*%
D12*
%TO.C,SW5*%
X132534500Y-80456000D03*
D13*
X126034500Y-80456000D03*
%TD*%
D18*
%TO.C,TP6*%
X178127500Y-105180000D03*
%TD*%
D19*
%TO.C,R21*%
X175564500Y-77765500D03*
X175564500Y-79590500D03*
%TD*%
D18*
%TO.C,TP3*%
X193797500Y-77480000D03*
%TD*%
D38*
%TO.C,R11*%
X178485500Y-75145500D03*
X178485500Y-73320500D03*
%TD*%
D32*
%TO.C,C5*%
X87934500Y-106806000D03*
X87934500Y-104906000D03*
%TD*%
D24*
%TO.C,R22*%
X165809000Y-109158000D03*
X163984000Y-109158000D03*
%TD*%
D56*
%TO.C,LED2*%
X85530500Y-94299000D03*
X83480500Y-94299000D03*
%TD*%
D57*
%TO.C,U13*%
X115968500Y-89473000D03*
D58*
X115968500Y-92013000D03*
X115968500Y-94553000D03*
X115968500Y-97093000D03*
X123908500Y-97093000D03*
X123908500Y-94553000D03*
X123908500Y-92013000D03*
X123908500Y-89473000D03*
%TD*%
D38*
%TO.C,R33*%
X163447500Y-124268500D03*
X163447500Y-122443500D03*
%TD*%
D59*
%TO.C,U8*%
X171486500Y-118297000D03*
D60*
X171486500Y-120207000D03*
X171486500Y-122117000D03*
D61*
X192886500Y-121457000D03*
X194886500Y-122607000D03*
X190886500Y-122607000D03*
X194886500Y-123907000D03*
X190886500Y-123907000D03*
X194886500Y-125207000D03*
D62*
X192886500Y-125207000D03*
D61*
X190886500Y-125207000D03*
X194886500Y-126507000D03*
X190886500Y-126507000D03*
X194886500Y-127807000D03*
X190886500Y-127807000D03*
X192886500Y-128957000D03*
X192886500Y-111457000D03*
X194886500Y-112607000D03*
X190886500Y-112607000D03*
X194886500Y-113907000D03*
X190886500Y-113907000D03*
X194886500Y-115207000D03*
D62*
X192886500Y-115207000D03*
D61*
X190886500Y-115207000D03*
X194886500Y-116507000D03*
X190886500Y-116507000D03*
X194886500Y-117807000D03*
X190886500Y-117807000D03*
X192886500Y-118957000D03*
%TD*%
D23*
%TO.C,C17*%
X123052500Y-103484500D03*
X124952500Y-103484500D03*
%TD*%
D17*
%TO.C,R30*%
X98983000Y-67629000D03*
X100808000Y-67629000D03*
%TD*%
D24*
%TO.C,R19*%
X128725000Y-103484500D03*
X126900000Y-103484500D03*
%TD*%
D23*
%TO.C,C9*%
X83809500Y-117286000D03*
X85709500Y-117286000D03*
%TD*%
D12*
%TO.C,SW4*%
X142948500Y-61152000D03*
D13*
X136448500Y-61152000D03*
%TD*%
D12*
%TO.C,SW14*%
X111198500Y-74106000D03*
D13*
X104698500Y-74106000D03*
%TD*%
D50*
%TO.C,C18*%
X199877500Y-118460000D03*
X197977500Y-118460000D03*
%TD*%
D56*
%TO.C,LED3*%
X85657500Y-97728000D03*
X83607500Y-97728000D03*
%TD*%
D63*
%TO.C,J3*%
X172407500Y-64662500D03*
D64*
X167407500Y-64662500D03*
X162407500Y-64662500D03*
X157407500Y-64662500D03*
%TD*%
D18*
%TO.C,TP7*%
X184827500Y-105090000D03*
%TD*%
D30*
%TO.C,C14*%
X149910500Y-81877500D03*
X149910500Y-83777500D03*
%TD*%
D42*
%TO.C,LED1*%
X148647500Y-128145000D03*
X148647500Y-126095000D03*
%TD*%
D56*
%TO.C,D2*%
X132381500Y-91892000D03*
X130331500Y-91892000D03*
%TD*%
D38*
%TO.C,R9*%
X85648500Y-124802500D03*
X85648500Y-122977500D03*
%TD*%
D50*
%TO.C,C26*%
X111097500Y-85161000D03*
X109197500Y-85161000D03*
%TD*%
D24*
%TO.C,R1*%
X84275000Y-109158000D03*
X82450000Y-109158000D03*
%TD*%
D12*
%TO.C,SW1*%
X143254500Y-80583000D03*
D13*
X136754500Y-80583000D03*
%TD*%
D12*
%TO.C,SW11*%
X121993500Y-67502000D03*
D13*
X115493500Y-67502000D03*
%TD*%
D19*
%TO.C,R10*%
X170865500Y-99990500D03*
X170865500Y-101815500D03*
%TD*%
D65*
%TO.C,U6*%
X152697500Y-97040000D03*
D16*
X155237500Y-97040000D03*
X157777500Y-97040000D03*
X160317500Y-97040000D03*
X162857500Y-97040000D03*
X165397500Y-97040000D03*
X167937500Y-97040000D03*
X170477500Y-97040000D03*
X173017500Y-97040000D03*
X175557500Y-97040000D03*
X178097500Y-97040000D03*
X180637500Y-97040000D03*
X183177500Y-97040000D03*
X185717500Y-97040000D03*
X188257500Y-97040000D03*
X190797500Y-97040000D03*
X193337500Y-97040000D03*
X195877500Y-97040000D03*
X198417500Y-97040000D03*
X200957500Y-97040000D03*
X200957500Y-81800000D03*
X198417500Y-81800000D03*
X195877500Y-81800000D03*
X193337500Y-81800000D03*
X190797500Y-81800000D03*
X188257500Y-81800000D03*
X185717500Y-81800000D03*
X183177500Y-81800000D03*
X180637500Y-81800000D03*
X178097500Y-81800000D03*
X175557500Y-81800000D03*
X173017500Y-81800000D03*
X170477500Y-81800000D03*
X167937500Y-81800000D03*
X165397500Y-81800000D03*
X162857500Y-81800000D03*
X160317500Y-81800000D03*
X157777500Y-81800000D03*
X155237500Y-81800000D03*
X152697500Y-81800000D03*
%TD*%
D17*
%TO.C,R13*%
X199544000Y-60390000D03*
X201369000Y-60390000D03*
%TD*%
D66*
%TO.C,U11*%
X150973000Y-100563000D03*
X150973000Y-101213000D03*
X150973000Y-101863000D03*
X150973000Y-102513000D03*
X155198000Y-102513000D03*
X155198000Y-101863000D03*
X155198000Y-101213000D03*
X155198000Y-100563000D03*
%TD*%
D67*
%TO.C,S1*%
X91967500Y-80938500D03*
D68*
X91967500Y-83438500D03*
X91967500Y-85938500D03*
%TD*%
D38*
%TO.C,R8*%
X85648500Y-121246500D03*
X85648500Y-119421500D03*
%TD*%
D24*
%TO.C,R3*%
X84275000Y-105094000D03*
X82450000Y-105094000D03*
%TD*%
D17*
%TO.C,R5*%
X79272000Y-94299000D03*
X81097000Y-94299000D03*
%TD*%
D32*
%TO.C,C15*%
X198207500Y-122570000D03*
X198207500Y-120670000D03*
%TD*%
D15*
%TO.C,REF\u002A\u002A*%
X150557500Y-62160000D03*
%TD*%
M02*
