%TF.GenerationSoftware,KiCad,Pcbnew,9.0.4*%
%TF.CreationDate,2026-01-15T21:37:34+03:30*%
%TF.ProjectId,Motor_Health_Monitoring_PCB,4d6f746f-725f-4486-9561-6c74685f4d6f,rev?*%
%TF.SameCoordinates,Original*%
%TF.FileFunction,Copper,L1,Top*%
%TF.FilePolarity,Positive*%
%FSLAX46Y46*%
G04 Gerber Fmt 4.6, Leading zero omitted, Abs format (unit mm)*
G04 Created by KiCad (PCBNEW 9.0.4) date 2026-01-15 21:37:34*
%MOMM*%
%LPD*%
G01*
G04 APERTURE LIST*
G04 Aperture macros list*
%AMRoundRect*
0 Rectangle with rounded corners*
0 $1 Rounding radius*
0 $2 $3 $4 $5 $6 $7 $8 $9 X,Y pos of 4 corners*
0 Add a 4 corners polygon primitive as box body*
4,1,4,$2,$3,$4,$5,$6,$7,$8,$9,$2,$3,0*
0 Add four circle primitives for the rounded corners*
1,1,$1+$1,$2,$3*
1,1,$1+$1,$4,$5*
1,1,$1+$1,$6,$7*
1,1,$1+$1,$8,$9*
0 Add four rect primitives between the rounded corners*
20,1,$1+$1,$2,$3,$4,$5,0*
20,1,$1+$1,$4,$5,$6,$7,0*
20,1,$1+$1,$6,$7,$8,$9,0*
20,1,$1+$1,$8,$9,$2,$3,0*%
G04 Aperture macros list end*
%TA.AperFunction,ComponentPad*%
%ADD10R,2.250000X2.250000*%
%TD*%
%TA.AperFunction,ComponentPad*%
%ADD11C,2.250000*%
%TD*%
%TA.AperFunction,SMDPad,CuDef*%
%ADD12R,1.230000X1.800000*%
%TD*%
%TA.AperFunction,ComponentPad*%
%ADD13C,1.600000*%
%TD*%
%TA.AperFunction,SMDPad,CuDef*%
%ADD14RoundRect,0.250000X-0.262500X-0.450000X0.262500X-0.450000X0.262500X0.450000X-0.262500X0.450000X0*%
%TD*%
%TA.AperFunction,SMDPad,CuDef*%
%ADD15C,2.000000*%
%TD*%
%TA.AperFunction,SMDPad,CuDef*%
%ADD16RoundRect,0.250000X-0.450000X0.262500X-0.450000X-0.262500X0.450000X-0.262500X0.450000X0.262500X0*%
%TD*%
%TA.AperFunction,ComponentPad*%
%ADD17R,1.508000X1.508000*%
%TD*%
%TA.AperFunction,ComponentPad*%
%ADD18C,1.508000*%
%TD*%
%TA.AperFunction,ComponentPad*%
%ADD19C,3.000000*%
%TD*%
%TA.AperFunction,SMDPad,CuDef*%
%ADD20RoundRect,0.250000X-0.250000X-0.475000X0.250000X-0.475000X0.250000X0.475000X-0.250000X0.475000X0*%
%TD*%
%TA.AperFunction,SMDPad,CuDef*%
%ADD21RoundRect,0.250000X0.262500X0.450000X-0.262500X0.450000X-0.262500X-0.450000X0.262500X-0.450000X0*%
%TD*%
%TA.AperFunction,SMDPad,CuDef*%
%ADD22RoundRect,0.250001X-1.499999X-0.949999X1.499999X-0.949999X1.499999X0.949999X-1.499999X0.949999X0*%
%TD*%
%TA.AperFunction,ComponentPad*%
%ADD23R,1.600000X1.600000*%
%TD*%
%TA.AperFunction,SMDPad,CuDef*%
%ADD24RoundRect,0.250000X-0.475000X0.250000X-0.475000X-0.250000X0.475000X-0.250000X0.475000X0.250000X0*%
%TD*%
%TA.AperFunction,ComponentPad*%
%ADD25C,1.208000*%
%TD*%
%TA.AperFunction,SMDPad,CuDef*%
%ADD26RoundRect,0.250000X0.475000X-0.250000X0.475000X0.250000X-0.475000X0.250000X-0.475000X-0.250000X0*%
%TD*%
%TA.AperFunction,ComponentPad*%
%ADD27R,1.905000X2.000000*%
%TD*%
%TA.AperFunction,ComponentPad*%
%ADD28O,1.905000X2.000000*%
%TD*%
%TA.AperFunction,ComponentPad*%
%ADD29R,3.500000X3.500000*%
%TD*%
%TA.AperFunction,ComponentPad*%
%ADD30RoundRect,0.750000X-0.750000X-1.000000X0.750000X-1.000000X0.750000X1.000000X-0.750000X1.000000X0*%
%TD*%
%TA.AperFunction,ComponentPad*%
%ADD31RoundRect,0.875000X-0.875000X-0.875000X0.875000X-0.875000X0.875000X0.875000X-0.875000X0.875000X0*%
%TD*%
%TA.AperFunction,SMDPad,CuDef*%
%ADD32RoundRect,0.250000X0.450000X-0.262500X0.450000X0.262500X-0.450000X0.262500X-0.450000X-0.262500X0*%
%TD*%
%TA.AperFunction,ComponentPad*%
%ADD33R,1.250000X1.250000*%
%TD*%
%TA.AperFunction,ComponentPad*%
%ADD34C,1.250000*%
%TD*%
%TA.AperFunction,ComponentPad*%
%ADD35C,1.440000*%
%TD*%
%TA.AperFunction,SMDPad,CuDef*%
%ADD36RoundRect,0.250000X0.450000X-0.325000X0.450000X0.325000X-0.450000X0.325000X-0.450000X-0.325000X0*%
%TD*%
%TA.AperFunction,SMDPad,CuDef*%
%ADD37R,2.810000X0.910000*%
%TD*%
%TA.AperFunction,ComponentPad*%
%ADD38R,1.700000X1.700000*%
%TD*%
%TA.AperFunction,ComponentPad*%
%ADD39C,1.700000*%
%TD*%
%TA.AperFunction,ComponentPad*%
%ADD40R,2.000000X2.000000*%
%TD*%
%TA.AperFunction,ComponentPad*%
%ADD41C,2.000000*%
%TD*%
%TA.AperFunction,SMDPad,CuDef*%
%ADD42RoundRect,0.065000X0.065000X-0.420000X0.065000X0.420000X-0.065000X0.420000X-0.065000X-0.420000X0*%
%TD*%
%TA.AperFunction,SMDPad,CuDef*%
%ADD43RoundRect,0.065000X0.420000X-0.065000X0.420000X0.065000X-0.420000X0.065000X-0.420000X-0.065000X0*%
%TD*%
%TA.AperFunction,SMDPad,CuDef*%
%ADD44R,3.150000X3.150000*%
%TD*%
%TA.AperFunction,SMDPad,CuDef*%
%ADD45RoundRect,0.250000X0.250000X0.475000X-0.250000X0.475000X-0.250000X-0.475000X0.250000X-0.475000X0*%
%TD*%
%TA.AperFunction,SMDPad,CuDef*%
%ADD46R,0.300000X1.200000*%
%TD*%
%TA.AperFunction,ComponentPad*%
%ADD47C,0.650000*%
%TD*%
%TA.AperFunction,SMDPad,CuDef*%
%ADD48R,0.200000X1.000000*%
%TD*%
%TA.AperFunction,ComponentPad*%
%ADD49O,1.050000X2.100000*%
%TD*%
%TA.AperFunction,SMDPad,CuDef*%
%ADD50RoundRect,0.150000X-0.150000X0.512500X-0.150000X-0.512500X0.150000X-0.512500X0.150000X0.512500X0*%
%TD*%
%TA.AperFunction,SMDPad,CuDef*%
%ADD51RoundRect,0.250000X0.325000X0.450000X-0.325000X0.450000X-0.325000X-0.450000X0.325000X-0.450000X0*%
%TD*%
%TA.AperFunction,ComponentPad*%
%ADD52R,1.140000X1.140000*%
%TD*%
%TA.AperFunction,ComponentPad*%
%ADD53C,1.140000*%
%TD*%
%TA.AperFunction,ComponentPad*%
%ADD54R,1.500000X1.500000*%
%TD*%
%TA.AperFunction,ComponentPad*%
%ADD55C,1.500000*%
%TD*%
%TA.AperFunction,ComponentPad*%
%ADD56C,0.500000*%
%TD*%
%TA.AperFunction,ComponentPad*%
%ADD57R,6.000000X9.000000*%
%TD*%
%TA.AperFunction,ComponentPad*%
%ADD58R,1.400000X1.400000*%
%TD*%
%TA.AperFunction,ComponentPad*%
%ADD59C,1.400000*%
%TD*%
%TA.AperFunction,ComponentPad*%
%ADD60RoundRect,0.250000X1.050000X1.050000X-1.050000X1.050000X-1.050000X-1.050000X1.050000X-1.050000X0*%
%TD*%
%TA.AperFunction,ComponentPad*%
%ADD61C,2.600000*%
%TD*%
%TA.AperFunction,ComponentPad*%
%ADD62RoundRect,0.250000X0.550000X-0.550000X0.550000X0.550000X-0.550000X0.550000X-0.550000X-0.550000X0*%
%TD*%
%TA.AperFunction,SMDPad,CuDef*%
%ADD63RoundRect,0.125000X-0.687500X-0.125000X0.687500X-0.125000X0.687500X0.125000X-0.687500X0.125000X0*%
%TD*%
%TA.AperFunction,ComponentPad*%
%ADD64R,1.900000X1.900000*%
%TD*%
%TA.AperFunction,ComponentPad*%
%ADD65C,1.900000*%
%TD*%
%TA.AperFunction,ViaPad*%
%ADD66C,0.600000*%
%TD*%
%TA.AperFunction,ViaPad*%
%ADD67C,1.500000*%
%TD*%
%TA.AperFunction,ViaPad*%
%ADD68C,1.800000*%
%TD*%
%TA.AperFunction,ViaPad*%
%ADD69C,0.800000*%
%TD*%
%TA.AperFunction,ViaPad*%
%ADD70C,1.000000*%
%TD*%
%TA.AperFunction,Conductor*%
%ADD71C,0.250000*%
%TD*%
%TA.AperFunction,Conductor*%
%ADD72C,0.400000*%
%TD*%
%TA.AperFunction,Conductor*%
%ADD73C,0.500000*%
%TD*%
%TA.AperFunction,Conductor*%
%ADD74C,1.800000*%
%TD*%
%TA.AperFunction,Conductor*%
%ADD75C,0.200000*%
%TD*%
%TA.AperFunction,Conductor*%
%ADD76C,0.600000*%
%TD*%
%TA.AperFunction,Conductor*%
%ADD77C,0.300000*%
%TD*%
%TA.AperFunction,Conductor*%
%ADD78C,1.000000*%
%TD*%
G04 APERTURE END LIST*
D10*
%TO.P,SW3,1,1*%
%TO.N,/8051 Micocontroller/R1*%
X143127500Y-67629000D03*
D11*
%TO.P,SW3,2,2*%
%TO.N,/8051 Micocontroller/C3*%
X136627500Y-67629000D03*
%TD*%
D12*
%TO.P,C3,1*%
%TO.N,/USB_PWR*%
X97713500Y-109960000D03*
%TO.P,C3,2*%
%TO.N,GND*%
X97713500Y-107340000D03*
%TD*%
D13*
%TO.P,C8,1*%
%TO.N,/+12V*%
X91733500Y-75063500D03*
%TO.P,C8,2*%
%TO.N,GND*%
X89233500Y-75063500D03*
%TD*%
D14*
%TO.P,R15,1*%
%TO.N,/8051 Micocontroller/M1_F*%
X183288000Y-73471000D03*
%TO.P,R15,2*%
%TO.N,Net-(U6-P2.1{slash}A9)*%
X185113000Y-73471000D03*
%TD*%
D10*
%TO.P,SW15,1,1*%
%TO.N,/8051 Micocontroller/R4*%
X111071500Y-67629000D03*
D11*
%TO.P,SW15,2,2*%
%TO.N,/8051 Micocontroller/C3*%
X104571500Y-67629000D03*
%TD*%
D15*
%TO.P,TP1,1,1*%
%TO.N,/+5V*%
X86237500Y-65000000D03*
%TD*%
D10*
%TO.P,SW9,1,1*%
%TO.N,/8051 Micocontroller/R3*%
X121866500Y-80583000D03*
D11*
%TO.P,SW9,2,2*%
%TO.N,/8051 Micocontroller/C1*%
X115366500Y-80583000D03*
%TD*%
D14*
%TO.P,R23,1*%
%TO.N,/+5V*%
X99110000Y-80583000D03*
%TO.P,R23,2*%
%TO.N,/8051 Micocontroller/C1*%
X100935000Y-80583000D03*
%TD*%
%TO.P,R29,1*%
%TO.N,/+5V*%
X99110000Y-74106000D03*
%TO.P,R29,2*%
%TO.N,/8051 Micocontroller/C2*%
X100935000Y-74106000D03*
%TD*%
D16*
%TO.P,R12,1*%
%TO.N,/8051 Micocontroller/EN1*%
X180644500Y-73320500D03*
%TO.P,R12,2*%
%TO.N,/8051 Micocontroller/EN1_PWM*%
X180644500Y-75145500D03*
%TD*%
D12*
%TO.P,C6,1*%
%TO.N,+3.3V*%
X101777500Y-103911000D03*
%TO.P,C6,2*%
%TO.N,GND*%
X101777500Y-106531000D03*
%TD*%
D17*
%TO.P,U7,1,GND*%
%TO.N,GND*%
X123113500Y-106675000D03*
D18*
%TO.P,U7,2,VCC_IN*%
%TO.N,/+5V*%
X125653500Y-106675000D03*
%TO.P,U7,3,SCL*%
%TO.N,/8051 Micocontroller/SDA*%
X128193500Y-106675000D03*
%TO.P,U7,4,SDA*%
%TO.N,/8051 Micocontroller/SCL*%
X130733500Y-106675000D03*
D19*
%TO.P,U7,S1*%
%TO.N,N/C*%
X115923500Y-107175000D03*
%TO.P,U7,S2*%
X137923500Y-107175000D03*
%TO.P,U7,S3*%
X137923500Y-129175000D03*
%TO.P,U7,S4*%
X115923500Y-129175000D03*
%TD*%
D20*
%TO.P,C12,1*%
%TO.N,Net-(U6-XTAL2)*%
X193029500Y-104671500D03*
%TO.P,C12,2*%
%TO.N,GND*%
X194929500Y-104671500D03*
%TD*%
D14*
%TO.P,R2,1*%
%TO.N,Net-(U3-VBUS)*%
X82450000Y-107126000D03*
%TO.P,R2,2*%
%TO.N,GND*%
X84275000Y-107126000D03*
%TD*%
D21*
%TO.P,R16,1*%
%TO.N,/8051 Micocontroller/M1_R*%
X195908000Y-73471000D03*
%TO.P,R16,2*%
%TO.N,Net-(U6-P2.2{slash}A10)*%
X194083000Y-73471000D03*
%TD*%
D22*
%TO.P,Y1,1,1*%
%TO.N,Net-(U6-XTAL2)*%
X193284500Y-101115500D03*
%TO.P,Y1,2,2*%
%TO.N,Net-(U6-XTAL1)*%
X198484500Y-101115500D03*
%TD*%
D13*
%TO.P,C10,1*%
%TO.N,/+5V*%
X85851500Y-75063500D03*
%TO.P,C10,2*%
%TO.N,GND*%
X83351500Y-75063500D03*
%TD*%
D23*
%TO.P,U10,1*%
%TO.N,/8051 Micocontroller/IR_OUT*%
X158590500Y-113095000D03*
D13*
%TO.P,U10,2*%
%TO.N,GND*%
X158590500Y-115635000D03*
%TO.P,U10,3*%
X164090500Y-115635000D03*
%TO.P,U10,4*%
%TO.N,Net-(R22-Pad2)*%
X164090500Y-113095000D03*
%TD*%
D15*
%TO.P,TP4,1,1*%
%TO.N,/8051 Micocontroller/EN2_PWM*%
X190367500Y-77480000D03*
%TD*%
D14*
%TO.P,R18,1*%
%TO.N,/8051 Micocontroller/M2_R*%
X183288000Y-60517000D03*
%TO.P,R18,2*%
%TO.N,Net-(U6-P2.5{slash}A13)*%
X185113000Y-60517000D03*
%TD*%
D24*
%TO.P,C25,1*%
%TO.N,/8051 Micocontroller/LM35_OUT*%
X147397500Y-113510000D03*
%TO.P,C25,2*%
%TO.N,GND*%
X147397500Y-115410000D03*
%TD*%
D25*
%TO.P,X1,P$1*%
%TO.N,Net-(U13-+)*%
X105956500Y-94655000D03*
%TO.P,X1,P$2*%
%TO.N,GND*%
X105956500Y-106655000D03*
%TD*%
D26*
%TO.P,C13,1*%
%TO.N,/+5V*%
X173024500Y-101853000D03*
%TO.P,C13,2*%
%TO.N,Net-(U6-RST)*%
X173024500Y-99953000D03*
%TD*%
D27*
%TO.P,U4,1,VI*%
%TO.N,/+12V*%
X91693500Y-69475500D03*
D28*
%TO.P,U4,2,GND*%
%TO.N,GND*%
X89153500Y-69475500D03*
%TO.P,U4,3,VO*%
%TO.N,/+5V*%
X86613500Y-69475500D03*
%TD*%
D14*
%TO.P,R31,1*%
%TO.N,/+5V*%
X98931000Y-61406000D03*
%TO.P,R31,2*%
%TO.N,/8051 Micocontroller/C4*%
X100756000Y-61406000D03*
%TD*%
D10*
%TO.P,SW12,1,1*%
%TO.N,/8051 Micocontroller/R3*%
X121941500Y-61279000D03*
D11*
%TO.P,SW12,2,2*%
%TO.N,/8051 Micocontroller/C4*%
X115441500Y-61279000D03*
%TD*%
D21*
%TO.P,R25,1*%
%TO.N,/8051 Micocontroller/IR_OUT*%
X158570000Y-109158000D03*
%TO.P,R25,2*%
%TO.N,/+5V*%
X156745000Y-109158000D03*
%TD*%
D12*
%TO.P,C4,1*%
%TO.N,+3.3V*%
X73580500Y-110598000D03*
%TO.P,C4,2*%
%TO.N,GND*%
X73580500Y-113218000D03*
%TD*%
D16*
%TO.P,R27,1*%
%TO.N,Net-(D1-K)*%
X127927500Y-95805500D03*
%TO.P,R27,2*%
%TO.N,/8051 Micocontroller/D0*%
X127927500Y-97630500D03*
%TD*%
D29*
%TO.P,J1,1*%
%TO.N,/POWER_IN*%
X85140500Y-83377000D03*
D30*
%TO.P,J1,2*%
%TO.N,GND*%
X79140500Y-83377000D03*
D31*
%TO.P,J1,3*%
X82140500Y-88077000D03*
%TD*%
D20*
%TO.P,C2,1*%
%TO.N,Net-(U3-VBUS)*%
X82412500Y-111190000D03*
%TO.P,C2,2*%
%TO.N,GND*%
X84312500Y-111190000D03*
%TD*%
D10*
%TO.P,SW6,1,1*%
%TO.N,/8051 Micocontroller/R2*%
X132459500Y-73979000D03*
D11*
%TO.P,SW6,2,2*%
%TO.N,/8051 Micocontroller/C2*%
X125959500Y-73979000D03*
%TD*%
D15*
%TO.P,TP5,1,1*%
%TO.N,/8051 Micocontroller/IP-*%
X203807500Y-76691500D03*
%TD*%
D21*
%TO.P,R20,1*%
%TO.N,/+5V*%
X132408000Y-103484500D03*
%TO.P,R20,2*%
%TO.N,/8051 Micocontroller/SCL*%
X130583000Y-103484500D03*
%TD*%
D32*
%TO.P,R32,1*%
%TO.N,Net-(LED4-Pad2)*%
X155947500Y-124195500D03*
%TO.P,R32,2*%
%TO.N,/Fault_LED*%
X155947500Y-122370500D03*
%TD*%
D21*
%TO.P,R26,1*%
%TO.N,/+5V*%
X132015000Y-97607000D03*
%TO.P,R26,2*%
%TO.N,/8051 Micocontroller/D0*%
X130190000Y-97607000D03*
%TD*%
D32*
%TO.P,R4,1*%
%TO.N,/PWD_LED*%
X148647500Y-124095500D03*
%TO.P,R4,2*%
%TO.N,GND*%
X148647500Y-122270500D03*
%TD*%
D33*
%TO.P,U5,1,ENABLE1*%
%TO.N,/8051 Micocontroller/EN1*%
X180771500Y-71435500D03*
D34*
%TO.P,U5,2,INPUT1*%
%TO.N,/8051 Micocontroller/M1_F*%
X183311500Y-71435500D03*
%TO.P,U5,3,OUTPUT1*%
%TO.N,Net-(J3-Pin_1)*%
X185851500Y-71435500D03*
%TO.P,U5,4,GND*%
%TO.N,GND*%
X188391500Y-71435500D03*
%TO.P,U5,5,GND*%
X190931500Y-71435500D03*
%TO.P,U5,6,OUTPUT2*%
%TO.N,Net-(J3-Pin_2)*%
X193471500Y-71435500D03*
%TO.P,U5,7,INPUT2*%
%TO.N,/8051 Micocontroller/M1_R*%
X196011500Y-71435500D03*
%TO.P,U5,8,VS*%
%TO.N,/8051 Micocontroller/IP-*%
X198551500Y-71435500D03*
%TO.P,U5,9,ENABLE2*%
%TO.N,/8051 Micocontroller/EN2*%
X198551500Y-62635500D03*
%TO.P,U5,10,INPUT3*%
%TO.N,/8051 Micocontroller/M2_F*%
X196011500Y-62635500D03*
%TO.P,U5,11,OUTPUT3*%
%TO.N,Net-(J3-Pin_3)*%
X193471500Y-62635500D03*
%TO.P,U5,12,GND*%
%TO.N,GND*%
X190931500Y-62635500D03*
%TO.P,U5,13,GND*%
X188391500Y-62635500D03*
%TO.P,U5,14,OUTPUT4*%
%TO.N,Net-(J3-Pin_4)*%
X185851500Y-62635500D03*
%TO.P,U5,15,INPUT4*%
%TO.N,/8051 Micocontroller/M2_R*%
X183311500Y-62635500D03*
%TO.P,U5,16,VSS*%
%TO.N,/+5V*%
X180771500Y-62635500D03*
%TD*%
D35*
%TO.P,RV1,1,1*%
%TO.N,/+5V*%
X111036500Y-89135000D03*
%TO.P,RV1,2,2*%
%TO.N,Net-(U13--)*%
X108496500Y-89135000D03*
%TO.P,RV1,3,3*%
%TO.N,GND*%
X105956500Y-89135000D03*
%TD*%
D14*
%TO.P,R6,1*%
%TO.N,Net-(U3-~{RXT}{slash}GPIO.3)*%
X79399000Y-97728000D03*
%TO.P,R6,2*%
%TO.N,Net-(LED3-Pad2)*%
X81224000Y-97728000D03*
%TD*%
D21*
%TO.P,R7,1*%
%TO.N,Net-(J2-CC1)*%
X75385000Y-116651000D03*
%TO.P,R7,2*%
%TO.N,GND*%
X73560000Y-116651000D03*
%TD*%
D20*
%TO.P,C16,1*%
%TO.N,/+5V*%
X188965500Y-73471000D03*
%TO.P,C16,2*%
%TO.N,GND*%
X190865500Y-73471000D03*
%TD*%
D36*
%TO.P,LED5,1*%
%TO.N,+3.3V*%
X163547500Y-128245000D03*
%TO.P,LED5,2*%
%TO.N,Net-(LED5-Pad2)*%
X163547500Y-126195000D03*
%TD*%
%TO.P,D1,1,K*%
%TO.N,Net-(D1-K)*%
X127927500Y-93806000D03*
%TO.P,D1,2,A*%
%TO.N,/+5V*%
X127927500Y-91756000D03*
%TD*%
D37*
%TO.P,F1,1,1*%
%TO.N,/VBUS*%
X81076500Y-117382000D03*
%TO.P,F1,2,2*%
%TO.N,/USB_PWR*%
X81076500Y-114142000D03*
%TD*%
D10*
%TO.P,SW7,1,1*%
%TO.N,/8051 Micocontroller/R2*%
X132407500Y-67629000D03*
D11*
%TO.P,SW7,2,2*%
%TO.N,/8051 Micocontroller/C3*%
X125907500Y-67629000D03*
%TD*%
D36*
%TO.P,LED4,1*%
%TO.N,+3.3V*%
X155947500Y-128245000D03*
%TO.P,LED4,2*%
%TO.N,Net-(LED4-Pad2)*%
X155947500Y-126195000D03*
%TD*%
D16*
%TO.P,R24,1*%
%TO.N,/+5V*%
X111163500Y-92757500D03*
%TO.P,R24,2*%
%TO.N,Net-(U13-+)*%
X111163500Y-94582500D03*
%TD*%
D10*
%TO.P,SW10,1,1*%
%TO.N,/8051 Micocontroller/R3*%
X121993500Y-73979000D03*
D11*
%TO.P,SW10,2,2*%
%TO.N,/8051 Micocontroller/C2*%
X115493500Y-73979000D03*
%TD*%
D10*
%TO.P,SW8,1,1*%
%TO.N,/8051 Micocontroller/R2*%
X132355500Y-61279000D03*
D11*
%TO.P,SW8,2,2*%
%TO.N,/8051 Micocontroller/C4*%
X125855500Y-61279000D03*
%TD*%
D38*
%TO.P,J4,1,Pin_1*%
%TO.N,/TX_RX*%
X72948500Y-97855000D03*
D39*
%TO.P,J4,2,Pin_2*%
%TO.N,/RX_TX*%
X72948500Y-95315000D03*
%TO.P,J4,3,Pin_3*%
%TO.N,GND*%
X72948500Y-92775000D03*
%TD*%
D20*
%TO.P,C1,1*%
%TO.N,/USB_PWR*%
X100700500Y-109920000D03*
%TO.P,C1,2*%
%TO.N,GND*%
X102600500Y-109920000D03*
%TD*%
D15*
%TO.P,TP2,1,1*%
%TO.N,GND*%
X90127500Y-65030000D03*
%TD*%
D40*
%TO.P,U2,1,IN*%
%TO.N,/USB_PWR*%
X93014500Y-109793000D03*
D41*
%TO.P,U2,2,GND*%
%TO.N,GND*%
X93014500Y-107253000D03*
%TO.P,U2,3,OUT*%
%TO.N,+3.3V*%
X93014500Y-104713000D03*
%TD*%
D42*
%TO.P,U3,1,RS485/GPIO.1*%
%TO.N,unconnected-(U3-RS485{slash}GPIO.1-Pad1)*%
X75897500Y-106420000D03*
%TO.P,U3,2,CLK/GPIO.0*%
%TO.N,unconnected-(U3-CLK{slash}GPIO.0-Pad2)*%
X76397500Y-106420000D03*
%TO.P,U3,3,GND*%
%TO.N,GND*%
X76897500Y-106420000D03*
%TO.P,U3,4,D+*%
%TO.N,/USB_D+*%
X77397500Y-106420000D03*
%TO.P,U3,5,D-*%
%TO.N,/USB_D-*%
X77897500Y-106420000D03*
%TO.P,U3,6,VDD*%
%TO.N,+3.3V*%
X78397500Y-106420000D03*
%TO.P,U3,7,VREGIN*%
X78897500Y-106420000D03*
D43*
%TO.P,U3,8,VBUS*%
%TO.N,Net-(U3-VBUS)*%
X79767500Y-105550000D03*
%TO.P,U3,9,~{RST}*%
%TO.N,Net-(U3-~{RST})*%
X79767500Y-105050000D03*
%TO.P,U3,10,NC*%
%TO.N,unconnected-(U3-NC-Pad10)*%
X79767500Y-104550000D03*
%TO.P,U3,11,~{SUSPEND}*%
%TO.N,unconnected-(U3-~{SUSPEND}-Pad11)*%
X79767500Y-104050000D03*
%TO.P,U3,12,GND*%
%TO.N,GND*%
X79767500Y-103550000D03*
%TO.P,U3,13,~{WAKEUP}*%
%TO.N,unconnected-(U3-~{WAKEUP}-Pad13)*%
X79767500Y-103050000D03*
%TO.P,U3,14,SUSPEND*%
%TO.N,unconnected-(U3-SUSPEND-Pad14)*%
X79767500Y-102550000D03*
D42*
%TO.P,U3,15,~{CTS}*%
%TO.N,unconnected-(U3-~{CTS}-Pad15)*%
X78897500Y-101680000D03*
%TO.P,U3,16,~{RTS}*%
%TO.N,unconnected-(U3-~{RTS}-Pad16)*%
X78397500Y-101680000D03*
%TO.P,U3,17,RXD*%
%TO.N,/RX_TX*%
X77897500Y-101680000D03*
%TO.P,U3,18,TXD*%
%TO.N,/TX_RX*%
X77397500Y-101680000D03*
%TO.P,U3,19,~{RXT}/GPIO.3*%
%TO.N,Net-(U3-~{RXT}{slash}GPIO.3)*%
X76897500Y-101680000D03*
%TO.P,U3,20,~{TXT}/GPIO.2*%
%TO.N,Net-(U3-~{TXT}{slash}GPIO.2)*%
X76397500Y-101680000D03*
%TO.P,U3,21,GND*%
%TO.N,GND*%
X75897500Y-101680000D03*
D43*
%TO.P,U3,22*%
%TO.N,N/C*%
X75027500Y-102550000D03*
%TO.P,U3,23*%
X75027500Y-103050000D03*
%TO.P,U3,24*%
X75027500Y-103550000D03*
%TO.P,U3,25*%
X75027500Y-104050000D03*
%TO.P,U3,26*%
X75027500Y-104550000D03*
%TO.P,U3,27*%
X75027500Y-105050000D03*
%TO.P,U3,28*%
X75027500Y-105550000D03*
D44*
%TO.P,U3,29,GND*%
%TO.N,GND*%
X77397500Y-104050000D03*
%TD*%
D32*
%TO.P,R14,1*%
%TO.N,/8051 Micocontroller/EN2_PWM*%
X201218500Y-64350500D03*
%TO.P,R14,2*%
%TO.N,/8051 Micocontroller/EN2*%
X201218500Y-62525500D03*
%TD*%
D10*
%TO.P,SW16,1,1*%
%TO.N,/8051 Micocontroller/R4*%
X111146500Y-61279000D03*
D11*
%TO.P,SW16,2,2*%
%TO.N,/8051 Micocontroller/C4*%
X104646500Y-61279000D03*
%TD*%
D45*
%TO.P,C7,1*%
%TO.N,+3.3V*%
X98663500Y-103951000D03*
%TO.P,C7,2*%
%TO.N,GND*%
X96763500Y-103951000D03*
%TD*%
D21*
%TO.P,R17,1*%
%TO.N,/8051 Micocontroller/M2_F*%
X195908000Y-60390000D03*
%TO.P,R17,2*%
%TO.N,Net-(U6-P2.4{slash}A12)*%
X194083000Y-60390000D03*
%TD*%
D46*
%TO.P,J2,A1,GNDA1*%
%TO.N,GND*%
X74920750Y-119484500D03*
%TO.P,J2,A2,SSTXP1*%
%TO.N,unconnected-(J2-SSTXP1-PadA2)*%
X75420750Y-119484500D03*
%TO.P,J2,A3,SSTXN1*%
%TO.N,unconnected-(J2-SSTXN1-PadA3)*%
X75920750Y-119484500D03*
%TO.P,J2,A4,VBUSA1*%
%TO.N,/VBUS*%
X76420750Y-119484500D03*
%TO.P,J2,A5,CC1*%
%TO.N,Net-(J2-CC1)*%
X76920750Y-119484500D03*
%TO.P,J2,A6,DP1*%
%TO.N,/USB_DP*%
X77420750Y-119484500D03*
%TO.P,J2,A7,DN1*%
%TO.N,/USB_DN*%
X77920750Y-119484500D03*
%TO.P,J2,A8,SBU1*%
%TO.N,unconnected-(J2-SBU1-PadA8)*%
X78420750Y-119484500D03*
%TO.P,J2,A9,VBUSA2*%
%TO.N,/VBUS*%
X78920750Y-119484500D03*
%TO.P,J2,A10,SSRXN2*%
%TO.N,unconnected-(J2-SSRXN2-PadA10)*%
X79420750Y-119484500D03*
%TO.P,J2,A11,SSRXP2*%
%TO.N,unconnected-(J2-SSRXP2-PadA11)*%
X79920750Y-119484500D03*
%TO.P,J2,A12,GNDA2*%
%TO.N,GND*%
X80420750Y-119484500D03*
D47*
%TO.P,J2,B1,GNDB1*%
X80470750Y-120734500D03*
%TO.P,J2,B2,SSTXP2*%
%TO.N,unconnected-(J2-SSTXP2-PadB2)*%
X80070750Y-121444500D03*
%TO.P,J2,B3,SSTXN2*%
%TO.N,unconnected-(J2-SSTXN2-PadB3)*%
X79270750Y-121444500D03*
%TO.P,J2,B4,VBUSB1*%
%TO.N,/VBUS*%
X78870750Y-120734500D03*
%TO.P,J2,B5,CC2*%
%TO.N,Net-(J2-CC2)*%
X78470750Y-121444500D03*
%TO.P,J2,B6,DP2*%
%TO.N,/USB_DP*%
X78070750Y-120734500D03*
%TO.P,J2,B7,DN2*%
%TO.N,/USB_DN*%
X77270750Y-120734500D03*
%TO.P,J2,B8,SBU2*%
%TO.N,unconnected-(J2-SBU2-PadB8)*%
X76870750Y-121444500D03*
%TO.P,J2,B9,VBUSB2*%
%TO.N,/VBUS*%
X76470750Y-120734500D03*
%TO.P,J2,B10,SSRXN1*%
%TO.N,unconnected-(J2-SSRXN1-PadB10)*%
X76070750Y-121444500D03*
%TO.P,J2,B11,SSRXP1*%
%TO.N,unconnected-(J2-SSRXP1-PadB11)*%
X75270750Y-121444500D03*
%TO.P,J2,B12,GNDB2*%
%TO.N,GND*%
X74870750Y-120734500D03*
%TO.P,J2,G1,GND/SHIELD*%
X79670750Y-120734500D03*
%TO.P,J2,G2,GND/SHIELD*%
X75670750Y-120734500D03*
D48*
%TO.P,J2,G3,GND/SHIELD*%
X77670750Y-124064500D03*
%TO.P,J2,G4,GND/SHIELD*%
X77670750Y-127164500D03*
D49*
%TO.P,J2,S1,GND/SHIELD*%
X73400750Y-121884500D03*
%TO.P,J2,S2,GND/SHIELD*%
X81940750Y-121884500D03*
%TO.P,J2,S3,GND/SHIELD*%
X73400750Y-126614500D03*
%TO.P,J2,S4,GND/SHIELD*%
X81940750Y-126614500D03*
%TD*%
D45*
%TO.P,C11,1*%
%TO.N,Net-(U6-XTAL1)*%
X198485500Y-104671500D03*
%TO.P,C11,2*%
%TO.N,GND*%
X196585500Y-104671500D03*
%TD*%
D50*
%TO.P,U1,1,I/O1*%
%TO.N,/USB_D-*%
X78597500Y-110179500D03*
%TO.P,U1,2,GND*%
%TO.N,GND*%
X77647500Y-110179500D03*
%TO.P,U1,3,I/O2*%
%TO.N,/USB_D+*%
X76697500Y-110179500D03*
%TO.P,U1,4,I/O2*%
%TO.N,/USB_DP*%
X76697500Y-112454500D03*
%TO.P,U1,5,VBUS*%
%TO.N,/VBUS*%
X77647500Y-112454500D03*
%TO.P,U1,6,I/O1*%
%TO.N,/USB_DN*%
X78597500Y-112454500D03*
%TD*%
D24*
%TO.P,C19,1*%
%TO.N,Net-(U13-+)*%
X111163500Y-104658000D03*
%TO.P,C19,2*%
%TO.N,GND*%
X111163500Y-106558000D03*
%TD*%
D21*
%TO.P,R28,1*%
%TO.N,Net-(D2-K)*%
X132396000Y-89352000D03*
%TO.P,R28,2*%
%TO.N,GND*%
X130571000Y-89352000D03*
%TD*%
D10*
%TO.P,SW13,1,1*%
%TO.N,/8051 Micocontroller/R4*%
X111198500Y-80521000D03*
D11*
%TO.P,SW13,2,2*%
%TO.N,/8051 Micocontroller/C1*%
X104698500Y-80521000D03*
%TD*%
D24*
%TO.P,C24,1*%
%TO.N,/+5V*%
X144857500Y-113510000D03*
%TO.P,C24,2*%
%TO.N,GND*%
X144857500Y-115410000D03*
%TD*%
D10*
%TO.P,SW2,1,1*%
%TO.N,/8051 Micocontroller/R1*%
X143202500Y-74106000D03*
D11*
%TO.P,SW2,2,2*%
%TO.N,/8051 Micocontroller/C2*%
X136702500Y-74106000D03*
%TD*%
D10*
%TO.P,SW5,1,1*%
%TO.N,/8051 Micocontroller/R2*%
X132534500Y-80456000D03*
D11*
%TO.P,SW5,2,2*%
%TO.N,/8051 Micocontroller/C1*%
X126034500Y-80456000D03*
%TD*%
D15*
%TO.P,TP6,1,1*%
%TO.N,/RX_TX*%
X178127500Y-105180000D03*
%TD*%
D16*
%TO.P,R21,1*%
%TO.N,/+5V*%
X175564500Y-77765500D03*
%TO.P,R21,2*%
%TO.N,Net-(U6-~{EA})*%
X175564500Y-79590500D03*
%TD*%
D15*
%TO.P,TP3,1,1*%
%TO.N,/8051 Micocontroller/EN1_PWM*%
X193797500Y-77480000D03*
%TD*%
D32*
%TO.P,R11,1*%
%TO.N,/+5V*%
X178485500Y-75145500D03*
%TO.P,R11,2*%
%TO.N,/8051 Micocontroller/EN1*%
X178485500Y-73320500D03*
%TD*%
D26*
%TO.P,C5,1*%
%TO.N,GND*%
X87934500Y-106806000D03*
%TO.P,C5,2*%
%TO.N,+3.3V*%
X87934500Y-104906000D03*
%TD*%
D21*
%TO.P,R22,1*%
%TO.N,/+5V*%
X165809000Y-109158000D03*
%TO.P,R22,2*%
%TO.N,Net-(R22-Pad2)*%
X163984000Y-109158000D03*
%TD*%
D51*
%TO.P,LED2,1*%
%TO.N,+3.3V*%
X85530500Y-94299000D03*
%TO.P,LED2,2*%
%TO.N,Net-(LED2-Pad2)*%
X83480500Y-94299000D03*
%TD*%
D52*
%TO.P,U13,1,NULL*%
%TO.N,unconnected-(U13-NULL-Pad1)*%
X115968500Y-89473000D03*
D53*
%TO.P,U13,2,-*%
%TO.N,Net-(U13--)*%
X115968500Y-92013000D03*
%TO.P,U13,3,+*%
%TO.N,Net-(U13-+)*%
X115968500Y-94553000D03*
%TO.P,U13,4,V-*%
%TO.N,GND*%
X115968500Y-97093000D03*
%TO.P,U13,5,NULL*%
%TO.N,unconnected-(U13-NULL-Pad5)*%
X123908500Y-97093000D03*
%TO.P,U13,6*%
%TO.N,/8051 Micocontroller/D0*%
X123908500Y-94553000D03*
%TO.P,U13,7,V+*%
%TO.N,/+5V*%
X123908500Y-92013000D03*
%TO.P,U13,8,NC*%
%TO.N,unconnected-(U13-NC-Pad8)*%
X123908500Y-89473000D03*
%TD*%
D32*
%TO.P,R33,1*%
%TO.N,Net-(LED5-Pad2)*%
X163447500Y-124268500D03*
%TO.P,R33,2*%
%TO.N,/MOTOR_LED*%
X163447500Y-122443500D03*
%TD*%
D54*
%TO.P,U8,1,VCC*%
%TO.N,/+5V*%
X171486500Y-118297000D03*
D55*
%TO.P,U8,2,GND*%
%TO.N,GND*%
X171486500Y-120207000D03*
%TO.P,U8,3,VIOUT*%
%TO.N,/8051 Micocontroller/ACS712_OUT*%
X171486500Y-122117000D03*
D56*
%TO.P,U8,4,IP+*%
%TO.N,/+12V*%
X192886500Y-121457000D03*
X194886500Y-122607000D03*
X190886500Y-122607000D03*
X194886500Y-123907000D03*
X190886500Y-123907000D03*
X194886500Y-125207000D03*
D57*
X192886500Y-125207000D03*
D56*
X190886500Y-125207000D03*
X194886500Y-126507000D03*
X190886500Y-126507000D03*
X194886500Y-127807000D03*
X190886500Y-127807000D03*
X192886500Y-128957000D03*
%TO.P,U8,5,IP-*%
%TO.N,/8051 Micocontroller/IP-*%
X192886500Y-111457000D03*
X194886500Y-112607000D03*
X190886500Y-112607000D03*
X194886500Y-113907000D03*
X190886500Y-113907000D03*
X194886500Y-115207000D03*
D57*
X192886500Y-115207000D03*
D56*
X190886500Y-115207000D03*
X194886500Y-116507000D03*
X190886500Y-116507000D03*
X194886500Y-117807000D03*
X190886500Y-117807000D03*
X192886500Y-118957000D03*
%TD*%
D20*
%TO.P,C17,1*%
%TO.N,GND*%
X123052500Y-103484500D03*
%TO.P,C17,2*%
%TO.N,/+5V*%
X124952500Y-103484500D03*
%TD*%
D14*
%TO.P,R30,1*%
%TO.N,/+5V*%
X98983000Y-67629000D03*
%TO.P,R30,2*%
%TO.N,/8051 Micocontroller/C3*%
X100808000Y-67629000D03*
%TD*%
D58*
%TO.P,U9,1,+VS*%
%TO.N,/+5V*%
X144760000Y-110650000D03*
D59*
%TO.P,U9,2,VOUT*%
%TO.N,/8051 Micocontroller/LM35_OUT*%
X147360000Y-110650000D03*
%TO.P,U9,3,GND*%
%TO.N,GND*%
X149960000Y-110650000D03*
%TD*%
D21*
%TO.P,R19,1*%
%TO.N,/8051 Micocontroller/SDA*%
X128725000Y-103484500D03*
%TO.P,R19,2*%
%TO.N,/+5V*%
X126900000Y-103484500D03*
%TD*%
D20*
%TO.P,C9,1*%
%TO.N,/VBUS*%
X83809500Y-117286000D03*
%TO.P,C9,2*%
%TO.N,GND*%
X85709500Y-117286000D03*
%TD*%
D10*
%TO.P,SW4,1,1*%
%TO.N,/8051 Micocontroller/R1*%
X142948500Y-61152000D03*
D11*
%TO.P,SW4,2,2*%
%TO.N,/8051 Micocontroller/C4*%
X136448500Y-61152000D03*
%TD*%
D10*
%TO.P,SW14,1,1*%
%TO.N,/8051 Micocontroller/R4*%
X111198500Y-74106000D03*
D11*
%TO.P,SW14,2,2*%
%TO.N,/8051 Micocontroller/C2*%
X104698500Y-74106000D03*
%TD*%
D45*
%TO.P,C18,1*%
%TO.N,/+5V*%
X199877500Y-118460000D03*
%TO.P,C18,2*%
%TO.N,GND*%
X197977500Y-118460000D03*
%TD*%
D51*
%TO.P,LED3,1*%
%TO.N,+3.3V*%
X85657500Y-97728000D03*
%TO.P,LED3,2*%
%TO.N,Net-(LED3-Pad2)*%
X83607500Y-97728000D03*
%TD*%
D60*
%TO.P,J3,1,Pin_1*%
%TO.N,Net-(J3-Pin_1)*%
X172407500Y-64662500D03*
D61*
%TO.P,J3,2,Pin_2*%
%TO.N,Net-(J3-Pin_2)*%
X167407500Y-64662500D03*
%TO.P,J3,3,Pin_3*%
%TO.N,Net-(J3-Pin_3)*%
X162407500Y-64662500D03*
%TO.P,J3,4,Pin_4*%
%TO.N,Net-(J3-Pin_4)*%
X157407500Y-64662500D03*
%TD*%
D15*
%TO.P,TP7,1,1*%
%TO.N,/TX_RX*%
X184827500Y-105090000D03*
%TD*%
D24*
%TO.P,C14,1*%
%TO.N,/+5V*%
X149910500Y-81877500D03*
%TO.P,C14,2*%
%TO.N,GND*%
X149910500Y-83777500D03*
%TD*%
D36*
%TO.P,LED1,1*%
%TO.N,+3.3V*%
X148647500Y-128145000D03*
%TO.P,LED1,2*%
%TO.N,/PWD_LED*%
X148647500Y-126095000D03*
%TD*%
D51*
%TO.P,D2,1,K*%
%TO.N,Net-(D2-K)*%
X132381500Y-91892000D03*
%TO.P,D2,2,A*%
%TO.N,/+5V*%
X130331500Y-91892000D03*
%TD*%
D32*
%TO.P,R9,1*%
%TO.N,Net-(J2-CC2)*%
X85648500Y-124802500D03*
%TO.P,R9,2*%
%TO.N,GND*%
X85648500Y-122977500D03*
%TD*%
D45*
%TO.P,C26,1*%
%TO.N,/+5V*%
X111097500Y-85161000D03*
%TO.P,C26,2*%
%TO.N,GND*%
X109197500Y-85161000D03*
%TD*%
D21*
%TO.P,R1,1*%
%TO.N,/VBUS*%
X84275000Y-109158000D03*
%TO.P,R1,2*%
%TO.N,Net-(U3-VBUS)*%
X82450000Y-109158000D03*
%TD*%
D10*
%TO.P,SW1,1,1*%
%TO.N,/8051 Micocontroller/R1*%
X143254500Y-80583000D03*
D11*
%TO.P,SW1,2,2*%
%TO.N,/8051 Micocontroller/C1*%
X136754500Y-80583000D03*
%TD*%
D10*
%TO.P,SW11,1,1*%
%TO.N,/8051 Micocontroller/R3*%
X121993500Y-67502000D03*
D11*
%TO.P,SW11,2,2*%
%TO.N,/8051 Micocontroller/C3*%
X115493500Y-67502000D03*
%TD*%
D16*
%TO.P,R10,1*%
%TO.N,Net-(U6-RST)*%
X170865500Y-99990500D03*
%TO.P,R10,2*%
%TO.N,GND*%
X170865500Y-101815500D03*
%TD*%
D62*
%TO.P,U6,1,P1.0*%
%TO.N,Net-(U11-~{CS})*%
X152697500Y-97040000D03*
D13*
%TO.P,U6,2,P1.1*%
%TO.N,Net-(U11-SCLK)*%
X155237500Y-97040000D03*
%TO.P,U6,3,P1.2*%
%TO.N,Net-(U11-DOUT)*%
X157777500Y-97040000D03*
%TO.P,U6,4,P1.3*%
%TO.N,Net-(U11-DIN)*%
X160317500Y-97040000D03*
%TO.P,U6,5,P1.4*%
%TO.N,/Fault_LED*%
X162857500Y-97040000D03*
%TO.P,U6,6,P1.5*%
%TO.N,/MOTOR_LED*%
X165397500Y-97040000D03*
%TO.P,U6,7,P1.6*%
%TO.N,unconnected-(U6-P1.6-Pad7)*%
X167937500Y-97040000D03*
%TO.P,U6,8,P1.7*%
%TO.N,/8051 Micocontroller/D0*%
X170477500Y-97040000D03*
%TO.P,U6,9,RST*%
%TO.N,Net-(U6-RST)*%
X173017500Y-97040000D03*
%TO.P,U6,10,P3.0/RXD*%
%TO.N,/RX_TX*%
X175557500Y-97040000D03*
%TO.P,U6,11,P3.1/TXD*%
%TO.N,/TX_RX*%
X178097500Y-97040000D03*
%TO.P,U6,12,P3.2/~{INT0}*%
%TO.N,unconnected-(U6-P3.2{slash}~{INT0}-Pad12)*%
X180637500Y-97040000D03*
%TO.P,U6,13,P3.3/~{INT1}*%
%TO.N,unconnected-(U6-P3.3{slash}~{INT1}-Pad13)*%
X183177500Y-97040000D03*
%TO.P,U6,14,P3.4/T0*%
%TO.N,/8051 Micocontroller/SDA*%
X185717500Y-97040000D03*
%TO.P,U6,15,P3.5/T1*%
%TO.N,/8051 Micocontroller/SCL*%
X188257500Y-97040000D03*
%TO.P,U6,16,P3.6/~{WR}*%
%TO.N,unconnected-(U6-P3.6{slash}~{WR}-Pad16)*%
X190797500Y-97040000D03*
%TO.P,U6,17,P3.7/~{RD}*%
%TO.N,unconnected-(U6-P3.7{slash}~{RD}-Pad17)*%
X193337500Y-97040000D03*
%TO.P,U6,18,XTAL2*%
%TO.N,Net-(U6-XTAL2)*%
X195877500Y-97040000D03*
%TO.P,U6,19,XTAL1*%
%TO.N,Net-(U6-XTAL1)*%
X198417500Y-97040000D03*
%TO.P,U6,20,VSS*%
%TO.N,GND*%
X200957500Y-97040000D03*
%TO.P,U6,21,P2.0/A8*%
%TO.N,/8051 Micocontroller/EN1_PWM*%
X200957500Y-81800000D03*
%TO.P,U6,22,P2.1/A9*%
%TO.N,Net-(U6-P2.1{slash}A9)*%
X198417500Y-81800000D03*
%TO.P,U6,23,P2.2/A10*%
%TO.N,Net-(U6-P2.2{slash}A10)*%
X195877500Y-81800000D03*
%TO.P,U6,24,P2.3/A11*%
%TO.N,/8051 Micocontroller/EN2_PWM*%
X193337500Y-81800000D03*
%TO.P,U6,25,P2.4/A12*%
%TO.N,Net-(U6-P2.4{slash}A12)*%
X190797500Y-81800000D03*
%TO.P,U6,26,P2.5/A13*%
%TO.N,Net-(U6-P2.5{slash}A13)*%
X188257500Y-81800000D03*
%TO.P,U6,27,P2.6/A14*%
%TO.N,unconnected-(U6-P2.6{slash}A14-Pad27)*%
X185717500Y-81800000D03*
%TO.P,U6,28,P2.7/A15*%
%TO.N,/8051 Micocontroller/IR_OUT*%
X183177500Y-81800000D03*
%TO.P,U6,29,~{PSEN}*%
%TO.N,unconnected-(U6-~{PSEN}-Pad29)*%
X180637500Y-81800000D03*
%TO.P,U6,30,ALE*%
%TO.N,unconnected-(U6-ALE-Pad30)*%
X178097500Y-81800000D03*
%TO.P,U6,31,~{EA}*%
%TO.N,Net-(U6-~{EA})*%
X175557500Y-81800000D03*
%TO.P,U6,32,P0.7/AD7*%
%TO.N,/8051 Micocontroller/C4*%
X173017500Y-81800000D03*
%TO.P,U6,33,P0.6/AD6*%
%TO.N,/8051 Micocontroller/C3*%
X170477500Y-81800000D03*
%TO.P,U6,34,P0.5/AD5*%
%TO.N,/8051 Micocontroller/C2*%
X167937500Y-81800000D03*
%TO.P,U6,35,P0.4/AD4*%
%TO.N,/8051 Micocontroller/C1*%
X165397500Y-81800000D03*
%TO.P,U6,36,P0.3/AD3*%
%TO.N,/8051 Micocontroller/R4*%
X162857500Y-81800000D03*
%TO.P,U6,37,P0.2/AD2*%
%TO.N,/8051 Micocontroller/R3*%
X160317500Y-81800000D03*
%TO.P,U6,38,P0.1/AD1*%
%TO.N,/8051 Micocontroller/R2*%
X157777500Y-81800000D03*
%TO.P,U6,39,P0.0/AD0*%
%TO.N,/8051 Micocontroller/R1*%
X155237500Y-81800000D03*
%TO.P,U6,40,VCC*%
%TO.N,/+5V*%
X152697500Y-81800000D03*
%TD*%
D14*
%TO.P,R13,1*%
%TO.N,/+5V*%
X199544000Y-60390000D03*
%TO.P,R13,2*%
%TO.N,/8051 Micocontroller/EN2*%
X201369000Y-60390000D03*
%TD*%
D63*
%TO.P,U11,1,~{CS}*%
%TO.N,Net-(U11-~{CS})*%
X150973000Y-100563000D03*
%TO.P,U11,2,V_{A}*%
%TO.N,/+5V*%
X150973000Y-101213000D03*
%TO.P,U11,3,GND*%
%TO.N,GND*%
X150973000Y-101863000D03*
%TO.P,U11,4,IN2*%
%TO.N,/8051 Micocontroller/LM35_OUT*%
X150973000Y-102513000D03*
%TO.P,U11,5,IN1*%
%TO.N,/8051 Micocontroller/ACS712_OUT*%
X155198000Y-102513000D03*
%TO.P,U11,6,DIN*%
%TO.N,Net-(U11-DIN)*%
X155198000Y-101863000D03*
%TO.P,U11,7,DOUT*%
%TO.N,Net-(U11-DOUT)*%
X155198000Y-101213000D03*
%TO.P,U11,8,SCLK*%
%TO.N,Net-(U11-SCLK)*%
X155198000Y-100563000D03*
%TD*%
D64*
%TO.P,S1,1*%
%TO.N,/+12V*%
X91967500Y-80938500D03*
D65*
%TO.P,S1,2*%
%TO.N,/POWER_IN*%
X91967500Y-83438500D03*
%TO.P,S1,3*%
%TO.N,unconnected-(S1-Pad3)*%
X91967500Y-85938500D03*
%TD*%
D32*
%TO.P,R8,1*%
%TO.N,GND*%
X85648500Y-121246500D03*
%TO.P,R8,2*%
X85648500Y-119421500D03*
%TD*%
D21*
%TO.P,R3,1*%
%TO.N,+3.3V*%
X84275000Y-105094000D03*
%TO.P,R3,2*%
%TO.N,Net-(U3-~{RST})*%
X82450000Y-105094000D03*
%TD*%
D14*
%TO.P,R5,1*%
%TO.N,Net-(U3-~{TXT}{slash}GPIO.2)*%
X79272000Y-94299000D03*
%TO.P,R5,2*%
%TO.N,Net-(LED2-Pad2)*%
X81097000Y-94299000D03*
%TD*%
D26*
%TO.P,C15,1*%
%TO.N,/+12V*%
X198207500Y-122570000D03*
%TO.P,C15,2*%
%TO.N,GND*%
X198207500Y-120670000D03*
%TD*%
D66*
%TO.N,GND*%
X196617500Y-106230000D03*
X128927500Y-89320000D03*
X152687500Y-101820000D03*
X76577500Y-107650000D03*
D67*
X190997500Y-68260000D03*
D66*
X148637500Y-120600000D03*
X143047500Y-115360000D03*
X85577500Y-105790000D03*
X111227500Y-107940000D03*
X73560000Y-115240000D03*
X109027500Y-87330000D03*
X103787500Y-111130000D03*
X149347500Y-115400000D03*
X169117500Y-101850000D03*
D67*
X188347500Y-64370000D03*
D66*
X194937500Y-106190000D03*
D68*
X199597500Y-120670000D03*
D66*
X81117500Y-103560000D03*
X148336000Y-83820000D03*
X96387500Y-105920000D03*
X83337500Y-110240000D03*
X99977500Y-107110000D03*
D67*
X188387500Y-68250000D03*
X190957500Y-64350000D03*
D69*
%TO.N,+3.3V*%
X137677500Y-123707000D03*
X76097500Y-108690000D03*
X80567500Y-107330000D03*
X78597500Y-107980000D03*
D66*
X112937000Y-115070500D03*
D69*
%TO.N,/VBUS*%
X79667500Y-111490000D03*
X75880775Y-118136725D03*
X77637500Y-113920000D03*
X78987500Y-116060000D03*
D66*
%TO.N,/+5V*%
X188527500Y-75761000D03*
D69*
X187657500Y-73860000D03*
X113430000Y-92760000D03*
X130257500Y-94100000D03*
X97497500Y-80560000D03*
X178810000Y-76760000D03*
X113240000Y-85130000D03*
X149387500Y-101210000D03*
X197277500Y-63670000D03*
X143037500Y-113480000D03*
X97597500Y-61420000D03*
X129557500Y-101310000D03*
X97497500Y-67590000D03*
D66*
X194927500Y-67110000D03*
D69*
X134057500Y-103540000D03*
X167417500Y-109150000D03*
X174687500Y-101880000D03*
X97587500Y-74100000D03*
X133417500Y-97580000D03*
X154767500Y-106310000D03*
X199810000Y-116780000D03*
D66*
%TO.N,Net-(J2-CC2)*%
X83107500Y-124870000D03*
%TO.N,/USB_DN*%
X78367500Y-117290000D03*
D70*
%TO.N,Net-(J3-Pin_1)*%
X175267500Y-68790000D03*
D66*
%TO.N,Net-(J3-Pin_2)*%
X169587500Y-66130000D03*
%TO.N,/TX_RX*%
X96397500Y-98910000D03*
X182987500Y-106950000D03*
X157257500Y-103340000D03*
X166147500Y-104350000D03*
X90348235Y-98969265D03*
%TO.N,/RX_TX*%
X91907500Y-99680000D03*
X97907500Y-99640000D03*
X157046765Y-104240735D03*
%TO.N,Net-(U3-~{TXT}{slash}GPIO.2)*%
X76997500Y-98430000D03*
X75307500Y-100210000D03*
%TO.N,Net-(U3-~{RXT}{slash}GPIO.3)*%
X77667500Y-99220000D03*
X76291054Y-100356446D03*
%TO.N,/8051 Micocontroller/EN1_PWM*%
X184127500Y-78200000D03*
X193377500Y-79710000D03*
%TO.N,/8051 Micocontroller/EN2_PWM*%
X201047500Y-70440000D03*
X191667500Y-80070000D03*
X191632475Y-75724975D03*
%TO.N,Net-(U6-P2.1{slash}A9)*%
X185697500Y-74990000D03*
%TO.N,Net-(U6-P2.2{slash}A10)*%
X196137500Y-77020000D03*
%TO.N,/8051 Micocontroller/SDA*%
X161927120Y-106009620D03*
X157727500Y-105770000D03*
%TO.N,/8051 Micocontroller/SCL*%
X161227500Y-106890000D03*
X157727500Y-106660000D03*
%TO.N,/8051 Micocontroller/IR_OUT*%
X159827500Y-107190000D03*
%TO.N,/Fault_LED*%
X154077500Y-114700000D03*
%TO.N,/MOTOR_LED*%
X154727500Y-115490000D03*
%TO.N,/8051 Micocontroller/ACS712_OUT*%
X172667500Y-108550000D03*
X168687500Y-105150000D03*
%TD*%
D71*
%TO.N,/USB_PWR*%
X88665500Y-114142000D02*
X93014500Y-109793000D01*
X100660500Y-109960000D02*
X100700500Y-109920000D01*
X81076500Y-114142000D02*
X88665500Y-114142000D01*
X97713500Y-109960000D02*
X100660500Y-109960000D01*
X93014500Y-109793000D02*
X93384500Y-109793000D01*
X93384500Y-109793000D02*
X93551500Y-109960000D01*
X93551500Y-109960000D02*
X97713500Y-109960000D01*
D72*
%TO.N,GND*%
X79760750Y-124064500D02*
X81940750Y-121884500D01*
D73*
X75897500Y-102550000D02*
X75897500Y-101680000D01*
D72*
X148647500Y-120610000D02*
X148637500Y-120600000D01*
D73*
X77397500Y-104050000D02*
X75897500Y-102550000D01*
D72*
X74870750Y-120734500D02*
X74920750Y-120684500D01*
X144857500Y-115410000D02*
X143097500Y-115410000D01*
X109197500Y-87160000D02*
X109027500Y-87330000D01*
X97713500Y-107340000D02*
X97713500Y-107246000D01*
X111163500Y-107876000D02*
X111227500Y-107940000D01*
X85648500Y-121246500D02*
X85648500Y-122977500D01*
X123113500Y-106675000D02*
X123113500Y-103545500D01*
D73*
X79767500Y-103550000D02*
X81107500Y-103550000D01*
X76897500Y-106420000D02*
X76897500Y-104550000D01*
X76897500Y-106420000D02*
X76897500Y-107330000D01*
D72*
X80470750Y-120734500D02*
X80470750Y-119534500D01*
X84491500Y-107126000D02*
X84275000Y-107126000D01*
X77670750Y-124064500D02*
X75580750Y-124064500D01*
X73560000Y-118123750D02*
X74920750Y-119484500D01*
X84287500Y-111190000D02*
X83337500Y-110240000D01*
X85648500Y-121246500D02*
X85648500Y-119421500D01*
X73560000Y-116651000D02*
X73560000Y-118123750D01*
D73*
X81107500Y-103550000D02*
X81117500Y-103560000D01*
D72*
X196585500Y-104671500D02*
X196585500Y-106198000D01*
X77647500Y-110179500D02*
X77647500Y-110841999D01*
X73560000Y-115240000D02*
X73560000Y-113238500D01*
X85577500Y-105790000D02*
X85577500Y-106600000D01*
X190865500Y-73471000D02*
X190865500Y-71501500D01*
D74*
X197977500Y-118460000D02*
X197977500Y-120440000D01*
D72*
X149337500Y-115410000D02*
X149347500Y-115400000D01*
X144857500Y-115410000D02*
X147397500Y-115410000D01*
X81940750Y-126244500D02*
X79760750Y-124064500D01*
X74870750Y-120734500D02*
X75670750Y-120734500D01*
X73720750Y-121884500D02*
X74870750Y-120734500D01*
X77647500Y-110841999D02*
X77098499Y-111391000D01*
X85010500Y-121884500D02*
X85648500Y-121246500D01*
X194929500Y-106182000D02*
X194937500Y-106190000D01*
X102600500Y-109920000D02*
X102600500Y-109943000D01*
X194929500Y-104671500D02*
X194929500Y-106182000D01*
X109197500Y-85161000D02*
X109197500Y-87160000D01*
X75407500Y-111391000D02*
X73580500Y-113218000D01*
X73560000Y-113238500D02*
X73580500Y-113218000D01*
X79670750Y-120734500D02*
X80470750Y-120734500D01*
X196585500Y-106198000D02*
X196617500Y-106230000D01*
X81940750Y-121884500D02*
X85010500Y-121884500D01*
X73400750Y-126614500D02*
X73400750Y-126244500D01*
D73*
X76897500Y-107330000D02*
X76577500Y-107650000D01*
X89153500Y-74983500D02*
X89233500Y-75063500D01*
D72*
X130571000Y-89352000D02*
X128959500Y-89352000D01*
X147397500Y-115410000D02*
X149337500Y-115410000D01*
X96763500Y-105544000D02*
X96387500Y-105920000D01*
X73560000Y-116651000D02*
X73560000Y-115240000D01*
X85783500Y-106806000D02*
X87934500Y-106806000D01*
X73400750Y-126244500D02*
X75580750Y-124064500D01*
X77098499Y-111391000D02*
X75407500Y-111391000D01*
X106017500Y-108900000D02*
X106017500Y-106716000D01*
X152644500Y-101863000D02*
X152687500Y-101820000D01*
X85577500Y-105790000D02*
X85577500Y-106040000D01*
X100556500Y-106531000D02*
X99977500Y-107110000D01*
X106017500Y-106716000D02*
X105956500Y-106655000D01*
D74*
X199597500Y-120670000D02*
X198207500Y-120670000D01*
D72*
X96763500Y-103951000D02*
X96763500Y-105544000D01*
X74920750Y-120684500D02*
X74920750Y-119484500D01*
X85709500Y-117286000D02*
X85709500Y-119360500D01*
X80470750Y-120734500D02*
X80746750Y-121010500D01*
D73*
X77397500Y-104050000D02*
X77897500Y-103550000D01*
D72*
X92567500Y-106806000D02*
X93014500Y-107253000D01*
X148336000Y-83820000D02*
X149868000Y-83820000D01*
X169152000Y-101815500D02*
X169117500Y-101850000D01*
X84312500Y-111190000D02*
X84287500Y-111190000D01*
X85577500Y-106040000D02*
X84491500Y-107126000D01*
X85709500Y-119360500D02*
X85648500Y-119421500D01*
X80932000Y-121884500D02*
X81940750Y-121884500D01*
X190865500Y-71501500D02*
X190931500Y-71435500D01*
X128959500Y-89352000D02*
X128927500Y-89320000D01*
X111163500Y-106558000D02*
X111163500Y-107876000D01*
X80470750Y-119534500D02*
X80420750Y-119484500D01*
D73*
X89153500Y-69475500D02*
X89153500Y-66004000D01*
X76897500Y-104550000D02*
X77397500Y-104050000D01*
X77897500Y-103550000D02*
X79767500Y-103550000D01*
D72*
X143097500Y-115410000D02*
X143047500Y-115360000D01*
X150973000Y-101863000D02*
X152644500Y-101863000D01*
X149868000Y-83820000D02*
X149910500Y-83777500D01*
X148647500Y-122270500D02*
X148647500Y-120610000D01*
X81940750Y-126614500D02*
X81940750Y-126244500D01*
X101777500Y-106531000D02*
X100556500Y-106531000D01*
X77670750Y-124064500D02*
X77670750Y-127164500D01*
X170865500Y-101815500D02*
X169152000Y-101815500D01*
X75580750Y-124064500D02*
X73400750Y-121884500D01*
X73400750Y-121884500D02*
X73720750Y-121884500D01*
X97713500Y-107246000D02*
X96387500Y-105920000D01*
X123113500Y-103545500D02*
X123052500Y-103484500D01*
X80746750Y-121010500D02*
X80746750Y-121699250D01*
X85577500Y-106600000D02*
X85783500Y-106806000D01*
D74*
X197977500Y-120440000D02*
X198207500Y-120670000D01*
D72*
X103787500Y-111130000D02*
X106017500Y-108900000D01*
X80746750Y-121699250D02*
X80932000Y-121884500D01*
X102600500Y-109943000D02*
X103787500Y-111130000D01*
X77670750Y-124064500D02*
X79760750Y-124064500D01*
X87934500Y-106806000D02*
X92567500Y-106806000D01*
D73*
X89153500Y-66004000D02*
X90127500Y-65030000D01*
X89153500Y-69475500D02*
X89153500Y-74983500D01*
D75*
%TO.N,Net-(U3-VBUS)*%
X80917500Y-105640000D02*
X80827500Y-105550000D01*
X82412500Y-111190000D02*
X82412500Y-107163500D01*
X82412500Y-107163500D02*
X82450000Y-107126000D01*
X80827500Y-105550000D02*
X79767500Y-105550000D01*
X80964000Y-105640000D02*
X80917500Y-105640000D01*
X82450000Y-107126000D02*
X80964000Y-105640000D01*
D72*
%TO.N,+3.3V*%
X78428500Y-107811000D02*
X78428500Y-106420000D01*
X94917500Y-102810000D02*
X97522500Y-102810000D01*
X155847500Y-128145000D02*
X155947500Y-128245000D01*
X101737500Y-103951000D02*
X101777500Y-103911000D01*
X85657500Y-94426000D02*
X85530500Y-94299000D01*
X104978500Y-103911000D02*
X112937000Y-111869500D01*
X78597500Y-107980000D02*
X78597500Y-106720000D01*
X79657500Y-106420000D02*
X80567500Y-107330000D01*
X87934500Y-104906000D02*
X84463000Y-104906000D01*
X74189500Y-110598000D02*
X76097500Y-108690000D01*
X155947500Y-128245000D02*
X163547500Y-128245000D01*
X84275000Y-104222500D02*
X85657500Y-102840000D01*
X140337000Y-123707000D02*
X145220000Y-128590000D01*
X85657500Y-102840000D02*
X85657500Y-97728000D01*
X101777500Y-103911000D02*
X104978500Y-103911000D01*
X78597500Y-107980000D02*
X78428500Y-107811000D01*
X78597500Y-106720000D02*
X78897500Y-106420000D01*
X98663500Y-103951000D02*
X101737500Y-103951000D01*
X73580500Y-110598000D02*
X74189500Y-110598000D01*
X148647500Y-128145000D02*
X155847500Y-128145000D01*
X148202500Y-128590000D02*
X148647500Y-128145000D01*
X85657500Y-97728000D02*
X85657500Y-94426000D01*
X84275000Y-105094000D02*
X84275000Y-104222500D01*
X84463000Y-104906000D02*
X84275000Y-105094000D01*
X93014500Y-104713000D02*
X94917500Y-102810000D01*
X145220000Y-128590000D02*
X148202500Y-128590000D01*
X112937000Y-111869500D02*
X112937000Y-115070500D01*
X137677500Y-123707000D02*
X140337000Y-123707000D01*
X88127500Y-104713000D02*
X87934500Y-104906000D01*
X97522500Y-102810000D02*
X98663500Y-103951000D01*
X93014500Y-104713000D02*
X88127500Y-104713000D01*
X78897500Y-106420000D02*
X79657500Y-106420000D01*
D74*
%TO.N,/+12V*%
X91967500Y-75297500D02*
X91733500Y-75063500D01*
X91733500Y-75063500D02*
X91733500Y-69515500D01*
X91733500Y-69515500D02*
X91693500Y-69475500D01*
X91967500Y-80938500D02*
X91967500Y-75297500D01*
X195570500Y-125207000D02*
X198207500Y-122570000D01*
X192886500Y-125207000D02*
X195570500Y-125207000D01*
D73*
%TO.N,/VBUS*%
X79754500Y-116060000D02*
X81076500Y-117382000D01*
X77637500Y-113920000D02*
X77637500Y-112464500D01*
X85817500Y-112590000D02*
X80767500Y-112590000D01*
X84275000Y-109158000D02*
X84875500Y-109158000D01*
X84875500Y-109158000D02*
X85747500Y-110030000D01*
X78870750Y-120734500D02*
X78920750Y-120684500D01*
X78987500Y-116060000D02*
X79754500Y-116060000D01*
X79705500Y-117382000D02*
X78920750Y-118166750D01*
X76420750Y-119484500D02*
X76420750Y-120684500D01*
X83809500Y-117286000D02*
X81172500Y-117286000D01*
X81172500Y-117286000D02*
X81076500Y-117382000D01*
X85747500Y-110030000D02*
X85817500Y-110100000D01*
X76420750Y-120684500D02*
X76470750Y-120734500D01*
X81076500Y-117382000D02*
X79705500Y-117382000D01*
X78920750Y-118166750D02*
X78920750Y-119484500D01*
X80767500Y-112590000D02*
X79667500Y-111490000D01*
X78920750Y-120684500D02*
X78920750Y-119484500D01*
X85817500Y-110100000D02*
X85817500Y-112590000D01*
X77637500Y-112464500D02*
X77647500Y-112454500D01*
D72*
%TO.N,/+5V*%
X149390500Y-101213000D02*
X149387500Y-101210000D01*
X97611500Y-61406000D02*
X97597500Y-61420000D01*
X129647500Y-102383500D02*
X131307000Y-102383500D01*
X131307000Y-102383500D02*
X132408000Y-103484500D01*
D76*
X86613500Y-74301500D02*
X85851500Y-75063500D01*
D72*
X188965500Y-73471000D02*
X188046500Y-73471000D01*
X133390500Y-97607000D02*
X133417500Y-97580000D01*
X134057500Y-103540000D02*
X133097500Y-103540000D01*
X199877500Y-116847500D02*
X199810000Y-116780000D01*
X178184500Y-75145500D02*
X175564500Y-77765500D01*
X124165500Y-91756000D02*
X123908500Y-92013000D01*
X133042000Y-103484500D02*
X132408000Y-103484500D01*
X143067500Y-113510000D02*
X143037500Y-113480000D01*
X155567500Y-107620000D02*
X156745000Y-108797500D01*
X125653500Y-104185500D02*
X124952500Y-103484500D01*
X130331500Y-94026000D02*
X130257500Y-94100000D01*
X155567500Y-107110000D02*
X155567500Y-107620000D01*
X130331500Y-91892000D02*
X130331500Y-94026000D01*
D76*
X86613500Y-69475500D02*
X86613500Y-74301500D01*
D72*
X165809000Y-109158000D02*
X167409500Y-109158000D01*
D76*
X86613500Y-69475500D02*
X86613500Y-65376000D01*
D72*
X197277500Y-62144000D02*
X197277500Y-63670000D01*
X199031500Y-60390000D02*
X197277500Y-62144000D01*
X178485500Y-75145500D02*
X178485500Y-76435500D01*
X133097500Y-103540000D02*
X133042000Y-103484500D01*
X111163500Y-92757500D02*
X113427500Y-92757500D01*
X113209000Y-85161000D02*
X113240000Y-85130000D01*
X167409500Y-109158000D02*
X167417500Y-109150000D01*
X99110000Y-80583000D02*
X97520500Y-80583000D01*
X188046500Y-73471000D02*
X187657500Y-73860000D01*
X97520500Y-80583000D02*
X97497500Y-80560000D01*
X144857500Y-113510000D02*
X143067500Y-113510000D01*
X130331500Y-91892000D02*
X128063500Y-91892000D01*
X152643500Y-81877500D02*
X152709500Y-81811500D01*
X173024500Y-101853000D02*
X174660500Y-101853000D01*
X199544000Y-60390000D02*
X199031500Y-60390000D01*
X126900000Y-103484500D02*
X126354500Y-103484500D01*
X149910500Y-81877500D02*
X152643500Y-81877500D01*
X174660500Y-101853000D02*
X174687500Y-101880000D01*
X156745000Y-108797500D02*
X156745000Y-109158000D01*
D76*
X86613500Y-65376000D02*
X86237500Y-65000000D01*
D72*
X98983000Y-67629000D02*
X97536500Y-67629000D01*
X97536500Y-67629000D02*
X97497500Y-67590000D01*
X97593500Y-74106000D02*
X97587500Y-74100000D01*
X129647500Y-101400000D02*
X129557500Y-101310000D01*
X178485500Y-76435500D02*
X178810000Y-76760000D01*
X126900000Y-103484500D02*
X128001000Y-102383500D01*
X98931000Y-61406000D02*
X97611500Y-61406000D01*
X178485500Y-75145500D02*
X178184500Y-75145500D01*
X128063500Y-91892000D02*
X127927500Y-91756000D01*
X154767500Y-106310000D02*
X155567500Y-107110000D01*
X132015000Y-97607000D02*
X133390500Y-97607000D01*
X150973000Y-101213000D02*
X149390500Y-101213000D01*
X111097500Y-85161000D02*
X113209000Y-85161000D01*
X99110000Y-74106000D02*
X97593500Y-74106000D01*
X113427500Y-92757500D02*
X113430000Y-92760000D01*
X127927500Y-91756000D02*
X124165500Y-91756000D01*
X126354500Y-103484500D02*
X125653500Y-104185500D01*
X199877500Y-118460000D02*
X199877500Y-116847500D01*
X125653500Y-106675000D02*
X125653500Y-104185500D01*
X129647500Y-102383500D02*
X129647500Y-101400000D01*
X128001000Y-102383500D02*
X129647500Y-102383500D01*
D75*
%TO.N,Net-(U6-XTAL1)*%
X198485500Y-104671500D02*
X198485500Y-101116500D01*
X198429500Y-101060500D02*
X198484500Y-101115500D01*
X198429500Y-97051500D02*
X198429500Y-101060500D01*
X198485500Y-101116500D02*
X198484500Y-101115500D01*
%TO.N,Net-(U6-XTAL2)*%
X195889500Y-98510500D02*
X195889500Y-97051500D01*
X193284500Y-101115500D02*
X195889500Y-98510500D01*
X193029500Y-104671500D02*
X193029500Y-101370500D01*
X193029500Y-101370500D02*
X193284500Y-101115500D01*
%TO.N,Net-(U6-RST)*%
X172987000Y-99990500D02*
X173024500Y-99953000D01*
X173024500Y-99953000D02*
X173024500Y-97056500D01*
X173024500Y-97056500D02*
X173029500Y-97051500D01*
X170865500Y-99990500D02*
X172987000Y-99990500D01*
%TO.N,Net-(U13-+)*%
X111163500Y-94582500D02*
X115939000Y-94582500D01*
X111163500Y-104658000D02*
X111163500Y-94582500D01*
X115939000Y-94582500D02*
X115968500Y-94553000D01*
X105956500Y-94655000D02*
X111091000Y-94655000D01*
X111091000Y-94655000D02*
X111163500Y-94582500D01*
D77*
%TO.N,/8051 Micocontroller/LM35_OUT*%
X149624500Y-102513000D02*
X150973000Y-102513000D01*
X147537500Y-104600000D02*
X149624500Y-102513000D01*
X147360000Y-110650000D02*
X147537500Y-110472500D01*
X147457500Y-113450000D02*
X147457500Y-110747500D01*
X147397500Y-113510000D02*
X147457500Y-113450000D01*
X147537500Y-110472500D02*
X147537500Y-104600000D01*
X147457500Y-110747500D02*
X147360000Y-110650000D01*
D75*
%TO.N,Net-(D1-K)*%
X127927500Y-93806000D02*
X127927500Y-95805500D01*
%TO.N,Net-(D2-K)*%
X132396000Y-89352000D02*
X132396000Y-91877500D01*
X132396000Y-91877500D02*
X132381500Y-91892000D01*
%TO.N,/POWER_IN*%
X91906000Y-83377000D02*
X91967500Y-83438500D01*
D74*
X85140500Y-83377000D02*
X91906000Y-83377000D01*
D75*
%TO.N,Net-(J2-CC1)*%
X76714000Y-117980000D02*
X76717500Y-117980000D01*
X76717500Y-117980000D02*
X76920750Y-118183250D01*
X75385000Y-116651000D02*
X76714000Y-117980000D01*
X76920750Y-118183250D02*
X76920750Y-119484500D01*
%TO.N,/USB_DP*%
X77490837Y-120140000D02*
X77447500Y-120140000D01*
X76697500Y-114240000D02*
X77422500Y-114965000D01*
X77447500Y-120140000D02*
X77447500Y-119511250D01*
X78070750Y-120734500D02*
X78070750Y-120719913D01*
X77422500Y-119482750D02*
X77420750Y-119484500D01*
X77447500Y-119511250D02*
X77420750Y-119484500D01*
X77422500Y-114965000D02*
X77422500Y-119482750D01*
X78070750Y-120719913D02*
X77490837Y-120140000D01*
X76697500Y-112454500D02*
X76697500Y-114240000D01*
%TO.N,Net-(J2-CC2)*%
X83107500Y-124870000D02*
X83175000Y-124802500D01*
X83175000Y-124802500D02*
X85648500Y-124802500D01*
%TO.N,/USB_DN*%
X77920750Y-114916750D02*
X77920750Y-119484500D01*
X78367500Y-117290000D02*
X78367500Y-118200000D01*
X78597500Y-112454500D02*
X78597500Y-114240000D01*
X78597500Y-114240000D02*
X77920750Y-114916750D01*
X78367500Y-118200000D02*
X77920750Y-118646750D01*
X77920750Y-118646750D02*
X77920750Y-119484500D01*
D78*
%TO.N,Net-(J3-Pin_4)*%
X181207000Y-67280000D02*
X160025000Y-67280000D01*
X185851500Y-62635500D02*
X181207000Y-67280000D01*
X160025000Y-67280000D02*
X157407500Y-64662500D01*
%TO.N,Net-(J3-Pin_1)*%
X183206000Y-68790000D02*
X185851500Y-71435500D01*
X175267500Y-68790000D02*
X183206000Y-68790000D01*
%TO.N,Net-(J3-Pin_2)*%
X169240000Y-64662500D02*
X167407500Y-64662500D01*
X169587500Y-66130000D02*
X169587500Y-65010000D01*
X169587500Y-65010000D02*
X169240000Y-64662500D01*
D75*
%TO.N,/TX_RX*%
X77397500Y-101680000D02*
X77397500Y-100670000D01*
X158267500Y-104350000D02*
X157257500Y-103340000D01*
X74582500Y-97855000D02*
X72948500Y-97855000D01*
X166147500Y-104350000D02*
X158267500Y-104350000D01*
X77397500Y-100670000D02*
X74582500Y-97855000D01*
X96397500Y-98910000D02*
X90407500Y-98910000D01*
X182987500Y-106950000D02*
X183097500Y-106840000D01*
X183097500Y-106820000D02*
X184827500Y-105090000D01*
X178109500Y-98372000D02*
X184827500Y-105090000D01*
X90407500Y-98910000D02*
X90348235Y-98969265D01*
X183097500Y-106840000D02*
X183097500Y-106820000D01*
X178109500Y-97051500D02*
X178109500Y-98372000D01*
%TO.N,/RX_TX*%
X97907500Y-99640000D02*
X91947500Y-99640000D01*
X176857500Y-106450000D02*
X163217443Y-106450000D01*
X91947500Y-99640000D02*
X91907500Y-99680000D01*
X72948500Y-95501000D02*
X77897500Y-100450000D01*
X175569500Y-97051500D02*
X175569500Y-102622000D01*
X157975030Y-105169000D02*
X157046765Y-104240735D01*
X72948500Y-95315000D02*
X72948500Y-95501000D01*
X161936443Y-105169000D02*
X157975030Y-105169000D01*
X77897500Y-100450000D02*
X77897500Y-101680000D01*
X175569500Y-102622000D02*
X178127500Y-105180000D01*
X163217443Y-106450000D02*
X161936443Y-105169000D01*
X178127500Y-105180000D02*
X176857500Y-106450000D01*
%TO.N,/PWD_LED*%
X148647500Y-124095500D02*
X148647500Y-126095000D01*
%TO.N,Net-(LED2-Pad2)*%
X81097000Y-94299000D02*
X83480500Y-94299000D01*
%TO.N,Net-(LED3-Pad2)*%
X81224000Y-97728000D02*
X83607500Y-97728000D01*
%TO.N,Net-(LED4-Pad2)*%
X155947500Y-124195500D02*
X155947500Y-126195000D01*
%TO.N,Net-(LED5-Pad2)*%
X163447500Y-124268500D02*
X163447500Y-126095000D01*
X163447500Y-126095000D02*
X163547500Y-126195000D01*
%TO.N,Net-(U3-~{RST})*%
X79767500Y-105050000D02*
X82406000Y-105050000D01*
X82406000Y-105050000D02*
X82450000Y-105094000D01*
%TO.N,Net-(U3-~{TXT}{slash}GPIO.2)*%
X76997500Y-98430000D02*
X79272000Y-96155500D01*
X76397500Y-101170000D02*
X76397500Y-101680000D01*
X79272000Y-96155500D02*
X79272000Y-94299000D01*
X75307500Y-100210000D02*
X75437500Y-100210000D01*
X75437500Y-100210000D02*
X76397500Y-101170000D01*
%TO.N,Net-(U3-~{RXT}{slash}GPIO.3)*%
X76291054Y-100356446D02*
X76291054Y-100483554D01*
X79399000Y-97728000D02*
X79159500Y-97728000D01*
X79159500Y-97728000D02*
X77667500Y-99220000D01*
X76873946Y-101066446D02*
X76873946Y-101656446D01*
X76873946Y-101656446D02*
X76897500Y-101680000D01*
X76291054Y-100483554D02*
X76873946Y-101066446D01*
%TO.N,/8051 Micocontroller/EN1*%
X180771500Y-73193500D02*
X180644500Y-73320500D01*
X180771500Y-71435500D02*
X180771500Y-73193500D01*
X178485500Y-73320500D02*
X180644500Y-73320500D01*
%TO.N,/8051 Micocontroller/EN1_PWM*%
X198448000Y-79290000D02*
X200969500Y-81811500D01*
X193797500Y-79290000D02*
X193377500Y-79710000D01*
X193797500Y-79290000D02*
X198448000Y-79290000D01*
X184127500Y-78200000D02*
X181073000Y-75145500D01*
X181073000Y-75145500D02*
X180644500Y-75145500D01*
X193797500Y-77480000D02*
X193797500Y-79290000D01*
%TO.N,/8051 Micocontroller/EN2*%
X201369000Y-62375000D02*
X201218500Y-62525500D01*
X201369000Y-60390000D02*
X201369000Y-62375000D01*
X201218500Y-62525500D02*
X198661500Y-62525500D01*
X198661500Y-62525500D02*
X198551500Y-62635500D01*
%TO.N,/8051 Micocontroller/EN2_PWM*%
X201047500Y-70440000D02*
X201218500Y-70269000D01*
X201218500Y-70269000D02*
X201218500Y-64350500D01*
X191667500Y-78780000D02*
X191667500Y-80070000D01*
X190367500Y-77480000D02*
X191667500Y-78780000D01*
X190367500Y-76989950D02*
X191632475Y-75724975D01*
X190367500Y-77480000D02*
X190367500Y-76989950D01*
%TO.N,/8051 Micocontroller/M1_F*%
X183311500Y-73447500D02*
X183288000Y-73471000D01*
X183311500Y-71435500D02*
X183311500Y-73447500D01*
%TO.N,Net-(U6-P2.1{slash}A9)*%
X185113000Y-73471000D02*
X185113000Y-74405500D01*
X185113000Y-74405500D02*
X185697500Y-74990000D01*
%TO.N,/8051 Micocontroller/M1_R*%
X195908000Y-73471000D02*
X195908000Y-71539000D01*
X195908000Y-71539000D02*
X196011500Y-71435500D01*
%TO.N,Net-(U6-P2.2{slash}A10)*%
X196137500Y-75525500D02*
X196137500Y-77020000D01*
X194083000Y-73471000D02*
X196137500Y-75525500D01*
%TO.N,Net-(U6-P2.4{slash}A12)*%
X192348500Y-62124500D02*
X192348500Y-80272500D01*
X194083000Y-60390000D02*
X192348500Y-62124500D01*
X192348500Y-80272500D02*
X190809500Y-81811500D01*
%TO.N,/8051 Micocontroller/M2_F*%
X195908000Y-62532000D02*
X196011500Y-62635500D01*
X195908000Y-60390000D02*
X195908000Y-62532000D01*
%TO.N,/8051 Micocontroller/M2_R*%
X183288000Y-62612000D02*
X183311500Y-62635500D01*
X183288000Y-60517000D02*
X183288000Y-62612000D01*
%TO.N,Net-(U6-P2.5{slash}A13)*%
X185113000Y-60517000D02*
X186867500Y-62271500D01*
X186867500Y-62271500D02*
X186867500Y-80409500D01*
X186867500Y-80409500D02*
X188269500Y-81811500D01*
%TO.N,/8051 Micocontroller/SDA*%
X161687500Y-105770000D02*
X157727500Y-105770000D01*
X161927120Y-106009620D02*
X161687500Y-105770000D01*
X128725000Y-106143500D02*
X128193500Y-106675000D01*
X128725000Y-103484500D02*
X128725000Y-106143500D01*
%TO.N,/8051 Micocontroller/SCL*%
X160926500Y-106589000D02*
X157798500Y-106589000D01*
X157798500Y-106589000D02*
X157727500Y-106660000D01*
X161227500Y-106890000D02*
X160926500Y-106589000D01*
X130583000Y-103484500D02*
X130583000Y-106524500D01*
X130583000Y-106524500D02*
X130733500Y-106675000D01*
%TO.N,Net-(U6-~{EA})*%
X175569500Y-79595500D02*
X175564500Y-79590500D01*
X175569500Y-81811500D02*
X175569500Y-79595500D01*
%TO.N,Net-(R22-Pad2)*%
X164090500Y-113095000D02*
X164090500Y-109264500D01*
X164090500Y-109264500D02*
X163984000Y-109158000D01*
%TO.N,/8051 Micocontroller/C1*%
X104636500Y-80583000D02*
X104698500Y-80521000D01*
X100935000Y-80583000D02*
X104636500Y-80583000D01*
D77*
%TO.N,/8051 Micocontroller/IR_OUT*%
X158590500Y-109178500D02*
X158570000Y-109158000D01*
X158570000Y-108447500D02*
X159827500Y-107190000D01*
X158590500Y-113095000D02*
X158590500Y-109178500D01*
X158570000Y-109158000D02*
X158570000Y-108447500D01*
D75*
%TO.N,/8051 Micocontroller/D0*%
X125738000Y-97630500D02*
X127927500Y-97630500D01*
X123908500Y-95801000D02*
X125738000Y-97630500D01*
X130190000Y-96867500D02*
X130190000Y-97607000D01*
X170477500Y-97040000D02*
X166097500Y-92660000D01*
X130166500Y-97630500D02*
X130190000Y-97607000D01*
X166097500Y-92660000D02*
X134397500Y-92660000D01*
X123908500Y-94553000D02*
X123908500Y-95801000D01*
X134397500Y-92660000D02*
X130190000Y-96867500D01*
X127927500Y-97630500D02*
X130166500Y-97630500D01*
%TO.N,/8051 Micocontroller/C2*%
X100935000Y-74106000D02*
X104698500Y-74106000D01*
%TO.N,/8051 Micocontroller/C3*%
X100808000Y-67629000D02*
X104571500Y-67629000D01*
%TO.N,/8051 Micocontroller/C4*%
X104646500Y-61279000D02*
X106235500Y-59690000D01*
X100756000Y-61406000D02*
X104519500Y-61406000D01*
X127444500Y-59690000D02*
X134986500Y-59690000D01*
X117060500Y-59660000D02*
X124236500Y-59660000D01*
X106235500Y-59690000D02*
X113852500Y-59690000D01*
X125855500Y-61279000D02*
X127444500Y-59690000D01*
X134986500Y-59690000D02*
X136448500Y-61152000D01*
X104519500Y-61406000D02*
X104646500Y-61279000D01*
X115441500Y-61279000D02*
X117060500Y-59660000D01*
X113852500Y-59690000D02*
X115441500Y-61279000D01*
X124236500Y-59660000D02*
X125855500Y-61279000D01*
%TO.N,/Fault_LED*%
X154226500Y-119174500D02*
X155947500Y-120895500D01*
X155947500Y-120895500D02*
X155947500Y-122370500D01*
X154077500Y-114700000D02*
X154226500Y-114849000D01*
X154226500Y-114849000D02*
X154226500Y-119174500D01*
%TO.N,/MOTOR_LED*%
X156340000Y-120620000D02*
X154727500Y-119007500D01*
X161624000Y-120620000D02*
X156340000Y-120620000D01*
X163447500Y-122443500D02*
X161624000Y-120620000D01*
X154727500Y-119007500D02*
X154727500Y-115490000D01*
%TO.N,Net-(U13--)*%
X109514733Y-89135000D02*
X112392733Y-92013000D01*
X108496500Y-89135000D02*
X109514733Y-89135000D01*
X112392733Y-92013000D02*
X115968500Y-92013000D01*
%TO.N,/8051 Micocontroller/R1*%
X142948500Y-61152000D02*
X142948500Y-80277000D01*
X142948500Y-80277000D02*
X143254500Y-80583000D01*
%TO.N,/8051 Micocontroller/R2*%
X132355500Y-80277000D02*
X132534500Y-80456000D01*
X132355500Y-61279000D02*
X132355500Y-80277000D01*
%TO.N,/8051 Micocontroller/R3*%
X121941500Y-80508000D02*
X121866500Y-80583000D01*
X121941500Y-61279000D02*
X121941500Y-80508000D01*
%TO.N,/8051 Micocontroller/R4*%
X111146500Y-67554000D02*
X111071500Y-67629000D01*
X111071500Y-73979000D02*
X111198500Y-74106000D01*
X111198500Y-74106000D02*
X111198500Y-80521000D01*
X111071500Y-67629000D02*
X111071500Y-73979000D01*
X111146500Y-61279000D02*
X111146500Y-67554000D01*
%TO.N,/USB_D-*%
X77897500Y-108485749D02*
X77897500Y-106420000D01*
X78597500Y-110179500D02*
X78597500Y-109185749D01*
X78597500Y-109185749D02*
X77897500Y-108485749D01*
%TO.N,/USB_D+*%
X76697500Y-109185749D02*
X77397500Y-108485749D01*
X76697500Y-110179500D02*
X76697500Y-109185749D01*
X77397500Y-108485749D02*
X77397500Y-106420000D01*
%TO.N,Net-(U11-DOUT)*%
X156010499Y-101213000D02*
X155198000Y-101213000D01*
X157789500Y-99433999D02*
X156010499Y-101213000D01*
X157789500Y-97051500D02*
X157789500Y-99433999D01*
%TO.N,Net-(U11-DIN)*%
X156649370Y-101863000D02*
X155198000Y-101863000D01*
X160329500Y-98182870D02*
X156649370Y-101863000D01*
X160329500Y-97051500D02*
X160329500Y-98182870D01*
%TO.N,Net-(U11-SCLK)*%
X155249500Y-97051500D02*
X155249500Y-100511500D01*
X155249500Y-100511500D02*
X155198000Y-100563000D01*
%TO.N,Net-(U11-~{CS})*%
X152709500Y-98826500D02*
X150973000Y-100563000D01*
X152709500Y-97051500D02*
X152709500Y-98826500D01*
D77*
%TO.N,/8051 Micocontroller/ACS712_OUT*%
X172667500Y-120936000D02*
X171486500Y-122117000D01*
X168687500Y-105150000D02*
X166050500Y-102513000D01*
X172667500Y-108550000D02*
X172667500Y-120936000D01*
X166050500Y-102513000D02*
X155198000Y-102513000D01*
D74*
%TO.N,/8051 Micocontroller/IP-*%
X203807500Y-78130000D02*
X203807500Y-76691500D01*
X192886500Y-115207000D02*
X197740500Y-115207000D01*
X203817500Y-78140000D02*
X203807500Y-78130000D01*
X203817500Y-76701500D02*
X198551500Y-71435500D01*
X203817500Y-78140000D02*
X203817500Y-76701500D01*
X197740500Y-115207000D02*
X203817500Y-109130000D01*
X203807500Y-76691500D02*
X203166750Y-76050750D01*
X203817500Y-109130000D02*
X203817500Y-78140000D01*
%TD*%
M02*
